<?xml version="1.0" encoding="utf-8"?>
<!-- Generator: Adobe Illustrator 22.1.0, SVG Export Plug-In . SVG Version: 6.00 Build 0)  -->
<svg version="1.1" id="Layer_1" xmlns="http://www.w3.org/2000/svg" xmlns:xlink="http://www.w3.org/1999/xlink" x="0px" y="0px"
	 viewBox="0 0 521 241.7" style="enable-background:new 0 0 521 241.7;" xml:space="preserve">
<style type="text/css">
	.st0{fill:#F8F8F8;}
	.st1{fill:#FFFFFF;}
	.st2{fill:#EFEFEF;}
	.st3{fill:none;stroke:#AFAFAF;stroke-width:1.75;stroke-miterlimit:10;}
	.st4{fill:#AFAFAF;stroke:#AFAFAF;stroke-width:0.598;stroke-miterlimit:10;}
	.st5{fill:#AFAFAF;}
	.st6{fill:#FFFFFF;stroke:#AFAFAF;stroke-width:1.75;stroke-miterlimit:10;}
	.st7{fill:#E84D4D;}
	.st8{fill:none;stroke:#3F3F3F;stroke-width:1.75;stroke-miterlimit:10;}
	.st9{fill:#3F3F3F;}
</style>
<title>shipping-page-graphics</title>
<g>
	<g id="Layer_1_1_">
		<path class="st0" d="M183.2,225c-5.7-1.6-74.5-17.4-63.5-94.4s19.2-99.8,46.9-106.2s96.5-41.8,145.1,0.4s101.7,80.8,75,140.3
			s-31.9,79.6-89.3,72.1S210.3,232.6,183.2,225z"/>
		<g id="_Ë_Û__12__x28_ÍÓÔË__x29__157">
			<rect x="142" y="32.7" class="st1" width="225.4" height="191.9"/>
		</g>
		<g id="_Ë_Û__12__x28_ÍÓÔË__x29__157-2">
			<rect x="142" y="32.7" class="st2" width="225.4" height="9.4"/>
		</g>
		<g id="_Ë_Û__12__x28_ÍÓÔË__x29__157_1_">
			<rect x="142" y="32.7" class="st3" width="225.4" height="191.9"/>
		</g>
		<g id="_Ë_Û__4__x28_ÍÓÔË__x29__2">
			<path class="st2" d="M212.3,79.4h26.1V53.3h-26.1V79.4z M241.7,79.4h26.1V53.3h-26.1L241.7,79.4z M182.9,79.4H209V53.3h-26.1
				V79.4z M329.8,53.3v26.1h26.1V53.3H329.8z M271.1,79.4h26.1V53.3h-26.1L271.1,79.4z M300.4,79.4h26.1V53.3h-26.1L300.4,79.4z"/>
		</g>
		<g id="_Ë_Û__4__x28_ÍÓÔË__x29__3">
			<rect x="153.6" y="53.3" class="st2" width="26.1" height="26.1"/>
		</g>
		<g id="Su__x28_ÍÓÔË__x29_">
			<path class="st4" d="M165.7,66.8c-0.3-0.2-0.6-0.4-0.9-0.6c-0.4-0.2-0.7-0.3-1.2-0.5c-0.4-0.1-0.7-0.3-1-0.4
				c-0.3-0.1-0.5-0.2-0.7-0.4c-0.2-0.1-0.3-0.3-0.4-0.5c-0.1-0.2-0.2-0.4-0.1-0.6c0-0.4,0.2-0.8,0.5-1.1c0.4-0.3,0.9-0.4,1.4-0.4
				c0.4,0,0.7,0,1.1,0.1c0.4,0.1,0.9,0.2,1.3,0.4c0.1,0,0.1,0,0.2-0.1l0.3-0.6c0-0.1,0-0.2-0.1-0.2c0,0,0,0,0,0
				c-0.4-0.2-0.9-0.3-1.3-0.4c-0.4-0.1-0.9-0.1-1.3-0.1c-0.4,0-0.9,0.1-1.3,0.2c-0.3,0.1-0.7,0.3-0.9,0.5c-0.3,0.2-0.5,0.5-0.6,0.8
				c-0.1,0.3-0.2,0.7-0.2,1c0,0.3,0.1,0.6,0.2,0.9c0.1,0.3,0.3,0.5,0.5,0.7c0.3,0.2,0.6,0.4,0.9,0.6c0.4,0.2,0.8,0.4,1.3,0.5
				c0.6,0.2,1.2,0.5,1.8,0.9c0.6,0.4,0.8,1.3,0.4,1.9c-0.1,0.2-0.3,0.4-0.5,0.5c-0.2,0.1-0.5,0.2-0.7,0.3c-0.3,0.1-0.6,0.1-0.9,0.1
				c-0.2,0-0.5,0-0.7,0c-0.2,0-0.5-0.1-0.8-0.1c-0.3-0.1-0.5-0.1-0.8-0.2c-0.2-0.1-0.5-0.2-0.7-0.3c-0.1,0-0.2,0-0.2,0.1l-0.3,0.6
				c-0.1,0.1,0,0.2,0.1,0.2c0.3,0.1,0.5,0.3,0.8,0.3c0.3,0.1,0.6,0.2,0.9,0.2c0.3,0.1,0.6,0.1,0.9,0.1c0.3,0,0.5,0,0.8,0
				c0.5,0,0.9-0.1,1.3-0.2c0.4-0.1,0.7-0.3,1-0.5c0.3-0.2,0.5-0.5,0.7-0.8c0.2-0.4,0.3-0.7,0.2-1.1c0-0.4-0.1-0.7-0.2-1
				C166.2,67.3,166,67,165.7,66.8z M173.4,64c0,0-0.1,0-0.1,0h-0.6c-0.1,0-0.1,0-0.1,0c0,0,0,0.1,0,0.1v6c-0.3,0.1-0.6,0.1-0.9,0.1
				c-0.3,0-0.5,0-0.6,0c-0.4,0-0.8,0-1.2-0.1c-0.3-0.1-0.5-0.2-0.7-0.5c-0.2-0.2-0.3-0.5-0.3-0.8c-0.1-0.4-0.1-0.8-0.1-1.1v-3.7
				c0-0.1,0-0.1,0-0.1c0,0-0.1,0-0.1,0H168c-0.1,0-0.1,0-0.1,0c0,0,0,0.1,0,0.1v3.7c0,0.5,0,1,0.2,1.5c0.1,0.4,0.3,0.7,0.5,1
				c0.3,0.3,0.6,0.5,1,0.6c0.5,0.1,1,0.2,1.5,0.2c0.1,0,0.2,0,0.4,0c0.1,0,0.3,0,0.5,0c0.2,0,0.3,0,0.5,0s0.3,0,0.4-0.1
				c0.4,0,0.8-0.4,0.7-0.9c0,0,0,0,0,0v-6C173.4,64.1,173.4,64.1,173.4,64z"/>
		</g>
		<g id="Mo__x28_ÍÓÔË__x29_">
			<path class="st4" d="M195.9,61.6h-0.3c-0.1,0-0.3,0-0.4,0.1c-0.1,0.1-0.2,0.2-0.3,0.4c-0.1,0.1-0.1,0.3-0.2,0.6s-0.2,0.5-0.3,0.8
				c-0.1,0.3-0.3,0.6-0.4,1c-0.1,0.3-0.3,0.7-0.4,1c-0.1,0.3-0.3,0.6-0.4,0.9S193,66.8,193,67c0,0.1-0.1,0.2-0.2,0.4
				c-0.1,0.2-0.2,0.4-0.2,0.6c-0.1,0.2-0.2,0.4-0.2,0.6s-0.1,0.3-0.2,0.4h-0.1c0-0.1-0.1-0.2-0.2-0.4s-0.1-0.4-0.2-0.6
				s-0.2-0.4-0.2-0.6s-0.1-0.3-0.2-0.4c0-0.1-0.1-0.3-0.2-0.6c-0.1-0.3-0.2-0.6-0.4-0.9c-0.1-0.3-0.3-0.7-0.5-1.1
				c-0.2-0.4-0.3-0.7-0.4-1.1c-0.1-0.3-0.3-0.6-0.4-0.8c-0.1-0.2-0.2-0.4-0.2-0.4c0-0.2-0.1-0.3-0.2-0.4c-0.1-0.1-0.3-0.1-0.4-0.1
				h-0.3c-0.2,0-0.3,0-0.5,0.2c-0.1,0.1-0.1,0.3-0.1,0.4v8.7c0,0.1,0,0.1,0,0.1c0,0,0.1,0,0.1,0h0.6c0.1,0,0.1,0,0.1,0
				c0,0,0-0.1,0-0.1v-7.3h0.1l0.6,1.5c0.1,0.2,0.2,0.6,0.4,1c0.2,0.4,0.3,0.8,0.5,1.3c0.2,0.4,0.4,0.9,0.5,1.3
				c0.2,0.4,0.3,0.7,0.4,1c0,0.1,0.1,0.3,0.2,0.4c0.1,0.1,0.3,0.1,0.4,0.1h0.4c0.1,0,0.3,0,0.4-0.1c0.1-0.1,0.2-0.2,0.2-0.4
				c0.1-0.2,0.2-0.5,0.4-0.9c0.2-0.4,0.3-0.8,0.5-1.3c0.2-0.4,0.4-0.9,0.5-1.3c0.2-0.4,0.3-0.7,0.4-0.9l0.7-1.7h0.1v7.4
				c0,0.1,0,0.1,0,0.1c0,0,0.1,0,0.1,0h0.6c0,0,0.1,0,0.1,0c0,0,0.1-0.1,0-0.1v-8.7c0-0.2,0-0.3-0.1-0.4
				C196.3,61.6,196.1,61.5,195.9,61.6z M203.5,64.8c-0.6-0.7-1.4-1-2.3-1c-0.4,0-0.9,0.1-1.2,0.2c-0.4,0.2-0.7,0.4-1,0.7
				c-0.3,0.3-0.5,0.7-0.6,1.2c-0.2,0.5-0.2,1-0.2,1.6c-0.1,1,0.2,1.9,0.8,2.7c0.6,0.6,1.4,1,2.3,0.9c0.9,0.1,1.7-0.3,2.3-1
				C204.6,68.5,204.6,66.4,203.5,64.8L203.5,64.8z M203.2,68.5c-0.1,0.3-0.2,0.6-0.3,0.9c-0.2,0.3-0.4,0.5-0.7,0.7
				c-0.3,0.2-0.7,0.3-1,0.2c-0.3,0-0.7-0.1-1-0.2c-0.3-0.1-0.5-0.4-0.6-0.6c-0.2-0.3-0.3-0.6-0.4-0.9c-0.1-0.4-0.1-0.8-0.1-1.2
				c0-0.4,0-0.7,0.1-1.1c0.1-0.3,0.2-0.6,0.4-0.9c0.4-0.5,1-0.9,1.6-0.8c0.4,0,0.7,0.1,1,0.2c0.3,0.2,0.5,0.4,0.6,0.6
				c0.2,0.3,0.3,0.6,0.3,0.9c0.1,0.4,0.1,0.7,0.1,1.1C203.3,67.8,203.3,68.2,203.2,68.5L203.2,68.5z"/>
		</g>
		<g id="Tu__x28_ÍÓÔË__x29_">
			<path class="st4" d="M225.6,61.6h-6.5c-0.1,0-0.1,0-0.1,0c0,0,0,0.1,0,0.1v0.6c0,0,0,0.1,0,0.1c0,0,0.1,0,0.1,0h2.7v8.3
				c0,0.1,0,0.1,0,0.1c0,0,0.1,0,0.1,0h0.7c0,0,0.1,0,0.1,0c0,0,0-0.1,0-0.1v-8.3h2.8c0,0,0.1,0,0.1,0c0,0,0-0.1,0-0.1v-0.6
				c0-0.1,0-0.1,0-0.1C225.7,61.6,225.7,61.6,225.6,61.6z M231.8,63.9c0,0-0.1,0-0.1,0H231c-0.1,0-0.1,0-0.1,0c0,0,0,0.1,0,0.1v6
				c-0.3,0.1-0.6,0.1-0.9,0.1c-0.3,0-0.5,0-0.6,0c-0.4,0-0.8,0-1.2-0.1c-0.3-0.1-0.5-0.2-0.7-0.5c-0.2-0.2-0.3-0.5-0.3-0.8
				c-0.1-0.4-0.1-0.8-0.1-1.1v-3.7c0-0.1,0-0.1,0-0.1c0,0-0.1,0-0.1,0h-0.6c-0.1,0-0.1,0-0.1,0c0,0,0,0.1,0,0.1v3.7
				c0,0.5,0,1,0.2,1.5c0.1,0.4,0.3,0.7,0.5,1c0.3,0.3,0.6,0.5,1,0.6c0.5,0.1,1,0.2,1.5,0.2c0.1,0,0.2,0,0.4,0s0.3,0,0.5,0
				c0.2,0,0.3,0,0.5,0c0.2,0,0.3,0,0.4-0.1c0.4,0,0.8-0.4,0.7-0.9c0,0,0,0,0,0v-6C231.8,64,231.8,64,231.8,63.9L231.8,63.9z"/>
		</g>
		<g id="We__x28_ÍÓÔË__x29_">
			<path class="st4" d="M256.1,61.6c-0.1,0-0.2,0-0.2,0.1l-1.2,5.8l-0.4,2.3h-0.1l-0.5-2.3l-1.3-5.4c0-0.1-0.1-0.3-0.2-0.4
				c-0.1-0.1-0.2-0.1-0.4-0.1h-0.5c-0.2,0-0.3,0-0.4,0.1c-0.1,0.1-0.1,0.2-0.2,0.3l-1.3,5.5l-0.5,2.2h-0.1l-0.4-2.2l-1.1-5.8
				c0-0.1-0.1-0.1-0.2-0.1h-0.8c-0.1,0-0.1,0-0.1,0.1l1.9,8.8c0,0.1,0.1,0.3,0.2,0.4c0.1,0.1,0.3,0.1,0.4,0.1h0.5
				c0.1,0,0.3,0,0.3-0.1c0.1-0.1,0.1-0.2,0.2-0.4l1.4-5.8l0.4-2h0l0.4,2l1.4,5.8c0,0.1,0.1,0.3,0.2,0.4c0.1,0.1,0.2,0.1,0.3,0.1h0.5
				c0.1,0,0.3,0,0.4-0.1c0.1-0.1,0.2-0.2,0.2-0.4l1.9-8.8c0-0.1,0-0.1-0.1-0.1L256.1,61.6z M263.1,67.6c0.2-0.2,0.3-0.5,0.3-0.7
				c0-0.4-0.1-0.8-0.2-1.2c-0.1-0.4-0.3-0.7-0.5-1c-0.2-0.3-0.6-0.5-0.9-0.6c-0.4-0.2-0.9-0.2-1.3-0.2c-0.4,0-0.8,0.1-1.2,0.2
				c-0.4,0.2-0.7,0.4-1,0.7c-0.3,0.3-0.5,0.7-0.6,1.2c-0.2,0.5-0.2,1.1-0.2,1.6c-0.1,1,0.2,2,0.8,2.8c0.6,0.6,1.5,0.9,2.3,0.9
				c0.4,0,0.7,0,1.1-0.1c0.4-0.1,0.7-0.2,1-0.4c0.1,0,0.1-0.1,0.1-0.2l-0.2-0.5c0-0.1-0.1-0.1-0.2-0.1c-0.2,0.1-0.5,0.2-0.7,0.3
				c-0.3,0.1-0.6,0.1-0.9,0.1c-0.3,0-0.6,0-0.9-0.1c-0.3-0.1-0.5-0.2-0.7-0.4c-0.2-0.2-0.4-0.5-0.5-0.8c-0.1-0.4-0.2-0.8-0.2-1.2
				h4.1C262.7,67.7,262.9,67.7,263.1,67.6z M258.4,66.9c0-0.3,0.1-0.6,0.2-0.9c0.1-0.3,0.2-0.5,0.4-0.7c0.2-0.2,0.4-0.4,0.6-0.5
				c0.3-0.1,0.6-0.2,0.8-0.2c0.3,0,0.7,0.1,1,0.2c0.2,0.1,0.5,0.3,0.6,0.5c0.2,0.2,0.3,0.5,0.3,0.7c0.1,0.3,0.1,0.6,0.1,0.9
				L258.4,66.9z"/>
		</g>
		<g id="Th__x28_ÍÓÔË__x29_">
			<path class="st4" d="M284,61.9h-6.5c-0.1,0-0.1,0-0.1,0c0,0,0,0.1,0,0.1v0.6c0,0,0,0.1,0,0.1c0,0,0.1,0,0.1,0h2.7v8.3
				c0,0.1,0,0.1,0,0.1c0,0,0.1,0,0.1,0h0.7c0,0,0.1,0,0.1,0c0,0,0-0.1,0-0.1v-8.3h2.8c0.1,0,0.2,0,0.2-0.1c0,0,0-0.1,0-0.1V62
				c0-0.1,0-0.1,0-0.1C284.1,61.9,284,61.9,284,61.9z M290.8,65.9c-0.1-0.4-0.3-0.7-0.5-1c-0.2-0.3-0.5-0.5-0.9-0.6
				c-0.4-0.2-0.9-0.2-1.3-0.2c-0.3,0-0.6,0-0.9,0.1c-0.3,0-0.7,0.1-1,0.3l0-2.8c0-0.1,0-0.1,0-0.1c0,0-0.1,0-0.1,0h-0.6
				c0,0-0.1,0-0.1,0c0,0-0.1,0.1,0,0.1v9.5c0,0.1,0,0.1,0,0.1c0,0,0.1,0,0.1,0h0.6c0.1,0,0.1,0,0.1,0c0,0,0-0.1,0-0.1v-5.8
				c0.3-0.1,0.6-0.2,0.9-0.2c0.3,0,0.6-0.1,0.9-0.1c0.6,0,1.1,0.2,1.5,0.5c0.4,0.5,0.5,1.1,0.5,1.7v3.9c0,0.1,0,0.1,0,0.1
				c0,0,0.1,0,0.1,0h0.6c0,0,0.1,0,0.1,0c0,0,0-0.1,0-0.1l0-3.9C290.9,66.8,290.9,66.3,290.8,65.9z"/>
		</g>
		<g id="Fr__x28_ÍÓÔË__x29_">
			<path class="st4" d="M313.4,61.6h-3.7c-0.4,0-0.7,0-1.1,0.2c-0.3,0.1-0.5,0.3-0.7,0.5c-0.2,0.2-0.3,0.5-0.4,0.7
				c-0.1,0.3-0.1,0.6-0.1,0.9v7c0,0.1,0,0.1,0.1,0.2c0.1,0,0.1,0,0.2,0h0.6c0.1,0,0.1,0,0.2,0c0,0,0.1-0.1,0-0.2v-4.2h4.3
				c0.1,0,0.1,0,0.2-0.1c0-0.1,0-0.1,0-0.2v-0.4c0-0.1,0-0.1,0-0.2c0,0-0.1,0-0.2,0h-4.3v-2c0-0.3,0.1-0.6,0.3-0.9
				c0.2-0.2,0.6-0.3,0.9-0.3h3.7c0.1,0,0.1,0,0.2,0c0-0.1,0-0.1,0-0.2v-0.5c0-0.1,0-0.1,0-0.2C313.6,61.6,313.5,61.6,313.4,61.6z
				 M319.4,64.7c-0.7-0.6-1.7-0.9-2.6-0.9c-0.4,0-0.7,0-1.1,0.1c-0.2,0-0.4,0.1-0.6,0.3c-0.1,0.2-0.2,0.4-0.1,0.6v6.1
				c0,0.1,0,0.1,0,0.1c0,0,0.1,0,0.1,0h0.6c0.1,0,0.1,0,0.1,0c0,0,0-0.1,0-0.1v-6.1c0.2,0,0.3-0.1,0.5-0.1c0.2,0,0.3,0,0.4,0
				c0.4,0,0.8,0.1,1.1,0.2c0.3,0.1,0.6,0.3,0.9,0.6c0,0,0.1,0,0.1,0c0,0,0.1,0,0.1-0.1l0.4-0.5C319.4,64.9,319.4,64.8,319.4,64.7
				C319.4,64.8,319.4,64.7,319.4,64.7z"/>
		</g>
		<g id="Sa__x28_ÍÓÔË__x29_">
			<path class="st4" d="M342.1,66.8c-0.3-0.2-0.6-0.4-0.9-0.6c-0.4-0.2-0.7-0.3-1.2-0.5c-0.4-0.1-0.7-0.3-1-0.4
				c-0.3-0.1-0.5-0.2-0.7-0.4c-0.2-0.1-0.3-0.3-0.4-0.5c-0.1-0.2-0.2-0.4-0.1-0.6c0-0.4,0.2-0.8,0.5-1.1c0.4-0.3,0.9-0.4,1.4-0.4
				c0.4,0,0.7,0,1.1,0.1c0.4,0.1,0.9,0.2,1.3,0.4c0.1,0,0.1,0,0.2-0.1l0.3-0.6c0-0.1,0-0.2-0.1-0.2c0,0,0,0,0,0
				c-0.4-0.2-0.9-0.3-1.3-0.4c-0.4-0.1-0.9-0.1-1.3-0.1c-0.4,0-0.9,0.1-1.3,0.2c-0.3,0.1-0.7,0.3-0.9,0.5c-0.3,0.2-0.5,0.5-0.6,0.8
				c-0.1,0.3-0.2,0.7-0.2,1c0,0.3,0.1,0.6,0.2,0.9c0.1,0.3,0.3,0.5,0.5,0.7c0.3,0.2,0.6,0.4,0.9,0.6c0.4,0.2,0.8,0.4,1.3,0.5
				c0.6,0.2,1.2,0.5,1.8,0.9c0.6,0.4,0.8,1.3,0.4,1.9c-0.1,0.2-0.3,0.4-0.5,0.5c-0.2,0.1-0.5,0.2-0.7,0.3c-0.3,0.1-0.6,0.1-0.9,0.1
				c-0.2,0-0.5,0-0.7,0c-0.2,0-0.5-0.1-0.8-0.1c-0.3-0.1-0.5-0.1-0.8-0.2c-0.2-0.1-0.5-0.2-0.7-0.3c-0.1,0-0.2,0-0.2,0.1l-0.3,0.6
				c-0.1,0.1,0,0.2,0.1,0.2c0.3,0.1,0.5,0.3,0.8,0.3c0.3,0.1,0.6,0.2,0.9,0.2c0.3,0.1,0.6,0.1,0.9,0.1c0.3,0,0.5,0,0.8,0
				c0.5,0,0.9-0.1,1.3-0.2c0.4-0.1,0.7-0.3,1-0.5c0.3-0.2,0.5-0.5,0.7-0.8c0.2-0.4,0.3-0.7,0.2-1.1c0-0.4-0.1-0.7-0.2-1
				C342.5,67.3,342.3,67,342.1,66.8z M348.9,64.4c-0.5-0.4-1.2-0.6-1.9-0.6c-0.2,0-0.4,0-0.6,0c-0.2,0-0.4,0-0.6,0.1
				c-0.2,0-0.4,0.1-0.6,0.1c-0.2,0-0.4,0.1-0.5,0.2c-0.1,0-0.1,0.1-0.1,0.2c0,0,0,0,0,0l0.1,0.5c0,0.1,0,0.1,0.1,0.1
				c0.1,0,0.1,0,0.1,0c0.3-0.1,0.6-0.2,0.9-0.2c0.3-0.1,0.6-0.1,1-0.1c0.3,0,0.6,0,0.9,0.1c0.2,0.1,0.4,0.2,0.5,0.3
				c0.1,0.1,0.2,0.3,0.3,0.5c0,0.2,0.1,0.4,0.1,0.6v0.4h-1.8c-0.4,0-0.9,0.1-1.3,0.2c-0.3,0.1-0.6,0.3-0.9,0.5
				c-0.2,0.2-0.4,0.5-0.5,0.8c-0.1,0.3-0.2,0.6-0.2,0.9c0,0.3,0,0.6,0.1,0.8c0.1,0.3,0.2,0.5,0.5,0.7c0.3,0.2,0.6,0.4,0.9,0.5
				c0.5,0.1,0.9,0.2,1.4,0.2c0.4,0,0.9,0,1.3-0.1c0.4-0.1,0.9-0.2,1.3-0.3c0.1-0.1,0.2-0.2,0.2-0.3v-4.3
				C349.6,65.5,349.4,64.9,348.9,64.4z M348.5,70.1c-0.2,0.1-0.3,0.1-0.5,0.1c-0.2,0-0.3,0.1-0.5,0.1c-0.2,0-0.3,0-0.5,0
				c-0.1,0-0.2,0-0.3,0c-0.2,0-0.5,0-0.7-0.1c-0.2,0-0.4-0.1-0.6-0.2c-0.2-0.1-0.3-0.3-0.4-0.4c-0.1-0.2-0.2-0.4-0.2-0.7
				c0-0.3,0.1-0.6,0.2-0.8c0.1-0.2,0.3-0.4,0.5-0.5c0.2-0.1,0.4-0.2,0.6-0.2c0.2,0,0.4,0,0.6,0h1.7L348.5,70.1z"/>
		</g>
		<g id="_x31__2_3_4_5_6_7_8_9_10_11_12_13_14_15_16_17_18_19_20_21_22_23_24___x28_ÍÓÔË__x29__29">
			<path class="st5" d="M188.8,153.6h5.1c0.1,0,0.2,0,0.2-0.1c0-0.1,0-0.1,0-0.2v-0.8c0-0.1,0-0.1,0-0.2c0,0-0.1-0.1-0.2-0.1H192
				v-8.5c0-0.2-0.1-0.4-0.3-0.5c-0.2-0.1-0.4-0.1-0.6,0l-2.3,0.7c-0.1,0-0.2,0.1-0.2,0.1c0,0.1,0,0.1,0,0.2v0.7c0,0.1,0,0.1,0,0.2
				c0,0,0.1,0,0.2,0l1.7-0.3v7.3h-1.8c-0.1,0-0.2,0-0.2,0.1c0,0.1,0,0.1,0,0.2v0.8c0,0.1,0,0.1,0,0.2
				C188.6,153.6,188.7,153.6,188.8,153.6z M198,153.6c0.6,0.1,1.2,0.2,1.8,0.2c0.5,0,1-0.1,1.5-0.2c0.4-0.1,0.8-0.4,1.2-0.7
				c0.3-0.3,0.6-0.6,0.7-1c0.2-0.4,0.3-0.8,0.3-1.3c0-0.3,0-0.6-0.1-0.9c-0.2-0.5-0.5-0.9-1-1.2c-0.2-0.1-0.5-0.2-0.8-0.3v-0.1
				c0.5-0.2,0.9-0.5,1.1-0.9c0.3-0.4,0.5-0.9,0.5-1.5c0-0.4-0.1-0.8-0.3-1.1c-0.2-0.3-0.4-0.6-0.7-0.8c-0.3-0.2-0.7-0.4-1.1-0.5
				c-0.4-0.1-0.8-0.2-1.3-0.2c-0.3,0-0.6,0-0.9,0.1c-0.3,0-0.6,0.1-0.9,0.2c-0.3,0.1-0.6,0.2-0.8,0.3c-0.3,0.1-0.5,0.3-0.7,0.5
				c-0.1,0.1-0.1,0.2-0.1,0.3c0,0,0,0,0,0l0.5,0.7c0.1,0.2,0.2,0.2,0.4,0c0.3-0.2,0.7-0.4,1.1-0.5c0.4-0.1,0.8-0.2,1.3-0.2
				c0.2,0,0.5,0,0.7,0.1c0.2,0,0.4,0.1,0.6,0.2c0.2,0.1,0.3,0.3,0.4,0.4c0.1,0.2,0.2,0.4,0.2,0.6c0,0.4-0.2,0.9-0.5,1.1
				c-0.4,0.3-0.9,0.4-1.5,0.4h-0.4c-0.3,0-0.4,0.2-0.4,0.5v0.4c0,0.1,0,0.2,0.1,0.3c0.1,0.1,0.2,0.1,0.3,0.1h0.5c0.3,0,0.6,0,1,0.1
				c0.2,0.1,0.5,0.2,0.7,0.4c0.2,0.1,0.3,0.3,0.4,0.5c0.1,0.2,0.1,0.4,0.1,0.6c0,0.5-0.2,1-0.5,1.4c-0.5,0.4-1.1,0.6-1.8,0.5
				c-0.4,0-0.8-0.1-1.2-0.2c-0.4-0.1-0.8-0.3-1.2-0.6c-0.2-0.1-0.3-0.1-0.4,0l-0.5,0.8c-0.1,0.1-0.1,0.2,0,0.3
				C196.8,153.2,197.4,153.4,198,153.6L198,153.6z M217.8,153.7h5.1c0.1,0,0.2,0,0.2-0.1c0-0.1,0-0.1,0-0.2v-0.8c0-0.1,0-0.1,0-0.2
				c0,0-0.1-0.1-0.2-0.1H221v-8.5c0-0.2-0.1-0.4-0.3-0.5c-0.2-0.1-0.4-0.1-0.6,0l-2.3,0.7c-0.1,0-0.2,0.1-0.2,0.1c0,0.1,0,0.1,0,0.2
				v0.7c0,0.1,0,0.1,0,0.2c0,0,0.1,0,0.2,0l1.7-0.3v7.3h-1.8c-0.1,0-0.2,0-0.2,0.1c0,0.1,0,0.1,0,0.2v0.8c0,0.1,0,0.1,0,0.2
				C217.6,153.7,217.7,153.7,217.8,153.7z M198.8,126.6c0.4-0.3,0.6-0.7,0.8-1.1c0.2-0.5,0.3-1,0.3-1.5c0-0.5-0.1-1-0.3-1.4
				c-0.2-0.4-0.5-0.7-0.8-1c-0.3-0.3-0.7-0.5-1.2-0.6c-0.5-0.1-0.9-0.2-1.4-0.2c-0.2,0-0.4,0-0.7,0c-0.2,0-0.5,0-0.7,0.1
				c-0.2,0-0.5,0.1-0.7,0.1c-0.2,0-0.4,0.1-0.6,0.2c0.1-0.4,0.2-0.8,0.3-1.2c0.2-0.4,0.4-0.7,0.6-1c0.3-0.3,0.6-0.5,1-0.6
				c0.4-0.2,0.9-0.2,1.3-0.2c0.2,0,0.5,0,0.7,0.1c0.2,0,0.4,0.1,0.6,0.1c0.1,0,0.2,0,0.2,0c0.1,0,0.1-0.1,0.1-0.2l0.3-0.8
				c0-0.1,0-0.2,0-0.2c0,0-0.1-0.1-0.2-0.1c-0.3-0.1-0.6-0.2-0.9-0.2c-0.3,0-0.6-0.1-0.9-0.1c-0.8,0-1.6,0.1-2.3,0.5
				c-0.6,0.3-1.1,0.7-1.5,1.2c-0.4,0.5-0.7,1.2-0.8,1.8c-0.2,0.7-0.3,1.5-0.3,2.3c0,0.7,0.1,1.3,0.3,2c0.2,0.5,0.4,1.1,0.8,1.5
				c0.3,0.4,0.8,0.7,1.3,0.9c0.6,0.2,1.2,0.3,1.8,0.3c0.5,0,1-0.1,1.4-0.2C198,127.1,198.4,126.9,198.8,126.6z M195.1,125.9
				c-0.3-0.1-0.6-0.4-0.8-0.6c-0.2-0.3-0.4-0.6-0.5-0.9c-0.1-0.4-0.2-0.8-0.2-1.2v-0.2c0-0.1,0-0.2,0-0.3c0.5-0.1,0.9-0.2,1.4-0.3
				c0.5-0.1,0.9-0.1,1.4-0.1c0.3,0,0.6,0,0.9,0.1c0.2,0.1,0.5,0.2,0.7,0.4c0.2,0.2,0.3,0.4,0.4,0.6c0.1,0.2,0.1,0.5,0.1,0.8
				c0,0.6-0.2,1.1-0.6,1.5c-0.5,0.4-1.1,0.6-1.7,0.5C195.8,126.1,195.4,126,195.1,125.9z M194.4,180c0.1,0,0.2,0,0.2-0.1
				c0-0.1,0-0.1,0-0.2v-0.8c0-0.1,0-0.1,0-0.2c0,0-0.1-0.1-0.2-0.1h-5.1c0.2-0.7,0.6-1.3,1.1-1.8c0.5-0.5,1.1-0.9,1.7-1.3
				c0.4-0.2,0.7-0.4,1-0.7c0.3-0.2,0.6-0.5,0.8-0.7c0.2-0.2,0.4-0.5,0.5-0.8c0.1-0.3,0.2-0.7,0.2-1c0-0.4-0.1-0.8-0.3-1.2
				c-0.2-0.3-0.4-0.6-0.7-0.8c-0.3-0.2-0.7-0.4-1.1-0.5c-1-0.3-2-0.2-3,0.1c-0.5,0.2-1.1,0.5-1.5,0.8c-0.1,0.1-0.2,0.2-0.1,0.3
				c0,0,0,0,0,0l0.5,0.7c0,0.1,0.1,0.1,0.2,0.1c0.1,0,0.1,0,0.2-0.1c0.7-0.5,1.5-0.8,2.3-0.8c0.5,0,1,0.1,1.5,0.4
				c0.3,0.2,0.5,0.6,0.5,1c0,0.2,0,0.4-0.1,0.5c-0.1,0.2-0.2,0.3-0.3,0.5c-0.2,0.2-0.3,0.3-0.5,0.5c-0.3,0.2-0.5,0.4-0.8,0.5
				c-0.3,0.2-0.7,0.4-1.1,0.7c-0.5,0.3-0.9,0.7-1.3,1.1c-0.4,0.4-0.7,0.9-1,1.4c-0.2,0.4-0.3,0.7-0.3,1.1c0,0.3,0.1,0.6,0.3,0.9
				c0.3,0.2,0.6,0.3,0.9,0.3L194.4,180z M194.7,205.1h-5.1c0.2-0.7,0.6-1.3,1.1-1.8c0.5-0.5,1.1-0.9,1.7-1.3c0.4-0.2,0.7-0.4,1-0.7
				c0.3-0.2,0.6-0.5,0.8-0.7c0.2-0.2,0.4-0.5,0.5-0.8c0.1-0.3,0.2-0.7,0.2-1c0-0.4-0.1-0.8-0.3-1.2c-0.2-0.3-0.4-0.6-0.7-0.8
				c-0.3-0.2-0.7-0.4-1.1-0.5c-1-0.3-2-0.2-3,0.1c-0.5,0.2-1.1,0.5-1.5,0.8c-0.1,0.1-0.2,0.2-0.1,0.3c0,0,0,0,0,0l0.5,0.7
				c0,0.1,0.1,0.1,0.2,0.1c0.1,0,0.1,0,0.2-0.1c0.7-0.5,1.5-0.8,2.3-0.8c0.5,0,1,0.1,1.5,0.4c0.3,0.2,0.5,0.6,0.5,1
				c0,0.2,0,0.4-0.1,0.5c-0.1,0.2-0.2,0.3-0.3,0.5c-0.2,0.2-0.3,0.3-0.5,0.5c-0.3,0.2-0.5,0.4-0.8,0.5c-0.3,0.2-0.7,0.4-1.1,0.7
				c-0.5,0.3-0.9,0.7-1.3,1.1c-0.4,0.4-0.7,0.9-1,1.4c-0.2,0.4-0.3,0.7-0.3,1.1c0,0.3,0.1,0.6,0.3,0.9c0.3,0.2,0.6,0.3,0.9,0.3h5.5
				c0.1,0,0.2,0,0.2-0.1c0-0.1,0-0.1,0-0.2v-0.8c0-0.1,0-0.1,0-0.2C194.9,205.1,194.8,205.1,194.7,205.1L194.7,205.1z M203.3,196.3
				H197c-0.1,0-0.2,0-0.2,0.1c0,0.1,0,0.1,0,0.2v0.8c0,0.1,0,0.1,0,0.2c0,0,0.1,0.1,0.2,0.1h5.4l-4.5,8.5c0,0.1-0.1,0.2,0,0.2
				c0,0.1,0.1,0.1,0.2,0.1h1.1c0.1,0,0.2,0,0.2-0.1c0.1-0.1,0.1-0.1,0.2-0.2l4.3-8c0.1-0.1,0.1-0.3,0.2-0.4c0-0.1,0.1-0.3,0.1-0.4
				v-0.4c0-0.2-0.1-0.4-0.2-0.5C203.7,196.3,203.5,196.3,203.3,196.3z M247.3,153.6h5.1c0.1,0,0.2,0,0.2-0.1c0-0.1,0-0.1,0-0.2v-0.8
				c0-0.1,0-0.1,0-0.2c0,0-0.1-0.1-0.2-0.1h-1.8v-8.5c0-0.2-0.1-0.4-0.3-0.5c-0.2-0.1-0.4-0.1-0.6,0l-2.3,0.7
				c-0.1,0-0.2,0.1-0.2,0.1c0,0.1,0,0.1,0,0.2v0.7c0,0.1,0,0.1,0,0.2c0,0,0.1,0,0.2,0l1.7-0.3v7.3h-1.8c-0.1,0-0.2,0-0.2,0.1
				c0,0.1,0,0.1,0,0.2v0.8c0,0.1,0,0.1,0,0.2C247.1,153.6,247.2,153.6,247.3,153.6L247.3,153.6z M335.9,127.3h5.1
				c0.1,0,0.2,0,0.2-0.1c0-0.1,0-0.1,0-0.2v-0.8c0-0.1,0-0.1,0-0.2c0,0-0.1-0.1-0.2-0.1h-1.8v-8.5c0-0.2-0.1-0.4-0.3-0.5
				c-0.2-0.1-0.4-0.1-0.6,0l-2.3,0.7c-0.1,0-0.2,0.1-0.2,0.1c0,0.1,0,0.1,0,0.2v0.7c0,0.1,0,0.1,0,0.2c0,0,0.1,0,0.2,0l1.7-0.3v7.3
				h-1.8c-0.1,0-0.2,0-0.2,0.1c0,0.1,0,0.1,0,0.2v0.8c0,0.1,0,0.1,0,0.2C335.7,127.3,335.8,127.3,335.9,127.3L335.9,127.3z
				 M335.4,153.6h5.1c0.1,0,0.2,0,0.2-0.1c0-0.1,0-0.1,0-0.2v-0.8c0-0.1,0-0.1,0-0.2c0,0-0.1-0.1-0.2-0.1h-1.8v-8.5
				c0-0.2-0.1-0.4-0.3-0.5c-0.2-0.1-0.4-0.1-0.6,0l-2.3,0.7c-0.1,0-0.2,0.1-0.2,0.1c0,0.1,0,0.1,0,0.2v0.7c0,0.1,0,0.1,0,0.2
				c0,0,0.1,0,0.2,0l1.7-0.3v7.3h-1.8c-0.1,0-0.2,0-0.2,0.1c0,0.1,0,0.1,0,0.2v0.8c0,0.1,0,0.1,0,0.2
				C335.2,153.6,335.3,153.6,335.4,153.6L335.4,153.6z M311.6,100.8c0.6,0.1,1.2,0.2,1.8,0.2c0.5,0,1-0.1,1.5-0.2
				c0.4-0.1,0.8-0.4,1.2-0.7c0.3-0.3,0.6-0.6,0.7-1c0.2-0.4,0.3-0.8,0.3-1.3c0-0.3,0-0.6-0.1-0.9c-0.2-0.5-0.5-0.9-1-1.2
				c-0.2-0.1-0.5-0.2-0.8-0.3v-0.1c0.5-0.2,0.9-0.5,1.1-0.9c0.3-0.4,0.5-0.9,0.5-1.5c0-0.4-0.1-0.8-0.3-1.1
				c-0.2-0.3-0.4-0.6-0.7-0.8c-0.3-0.2-0.7-0.4-1-0.5c-0.4-0.1-0.8-0.2-1.3-0.2c-0.6,0-1.2,0.1-1.8,0.3c-0.3,0.1-0.6,0.2-0.8,0.3
				c-0.3,0.1-0.5,0.3-0.7,0.5c-0.1,0.1-0.1,0.2-0.1,0.3c0,0,0,0,0,0l0.5,0.7c0.1,0.2,0.2,0.2,0.4,0c0.3-0.2,0.7-0.4,1.1-0.5
				c0.4-0.1,0.8-0.2,1.3-0.2c0.2,0,0.5,0,0.7,0.1c0.2,0,0.4,0.1,0.6,0.2c0.2,0.1,0.3,0.3,0.4,0.4c0.1,0.2,0.2,0.4,0.2,0.6
				c0,0.4-0.2,0.9-0.5,1.1c-0.4,0.3-0.9,0.4-1.5,0.4H313c-0.3,0-0.4,0.2-0.4,0.5v0.4c0,0.1,0,0.2,0.1,0.3c0.1,0.1,0.2,0.1,0.3,0.1
				h0.5c0.3,0,0.6,0,1,0.1c0.2,0.1,0.5,0.2,0.7,0.4c0.2,0.1,0.3,0.3,0.4,0.5c0.1,0.2,0.1,0.4,0.1,0.6c0,0.5-0.2,1-0.5,1.4
				c-0.5,0.4-1.1,0.6-1.8,0.5c-0.4,0-0.8-0.1-1.2-0.2c-0.4-0.1-0.8-0.3-1.2-0.6c-0.2-0.1-0.3-0.1-0.4,0l-0.5,0.8
				c-0.1,0.1-0.1,0.2,0,0.3C310.5,100.4,311.1,100.7,311.6,100.8L311.6,100.8z M339,98.5c0.2,0.1,0.4,0.1,0.6,0.1h4.6v2
				c0,0.1,0,0.2,0.1,0.2c0.1,0,0.1,0,0.2,0h1c0.1,0,0.1,0,0.2,0c0,0,0.1-0.1,0.1-0.2v-2h1c0.1,0,0.2,0,0.2-0.1
				c0-0.1,0.1-0.1,0.1-0.2v-0.7c0-0.1,0-0.1-0.1-0.2c-0.1,0-0.1-0.1-0.2-0.1h-1v-6c0-0.2,0-0.5-0.2-0.6c-0.2-0.1-0.4-0.2-0.6-0.2
				h-0.5c-0.2,0-0.4,0.1-0.5,0.2c-0.1,0.1-0.3,0.3-0.4,0.4l-4.3,5.6c-0.1,0.1-0.2,0.3-0.3,0.5c0,0.2-0.1,0.3-0.1,0.5v0.2
				C338.7,98.2,338.8,98.4,339,98.5L339,98.5z M344.1,92.5L344.1,92.5l0,4.9h-3.7l0-0.1L344.1,92.5z M306.2,152.3
				c-0.1,0-0.2,0-0.2,0.1c0,0.1,0,0.1,0,0.2v0.8c0,0.1,0,0.1,0,0.2c0,0,0.1,0.1,0.2,0.1h5.1c0.1,0,0.2,0,0.2-0.1c0-0.1,0-0.1,0-0.2
				v-0.8c0-0.1,0-0.1,0-0.2c0,0-0.1-0.1-0.2-0.1h-1.8v-8.5c0-0.2-0.1-0.4-0.3-0.5c-0.2-0.1-0.4-0.1-0.6,0l-2.3,0.7
				c-0.1,0-0.2,0.1-0.2,0.1c0,0.1,0,0.1,0,0.2v0.7c0,0.1,0,0.1,0,0.2c0,0,0.1,0,0.2,0l1.7-0.3v7.3L306.2,152.3z M222,118.4h5.4
				l-4.5,8.5c0,0.1-0.1,0.2,0,0.2c0,0.1,0.1,0.1,0.2,0.1h1.1c0.1,0,0.2,0,0.2-0.1c0.1-0.1,0.1-0.1,0.2-0.2l4.3-8
				c0.1-0.1,0.1-0.3,0.2-0.4c0-0.1,0.1-0.3,0.1-0.4v-0.4c0-0.2-0.1-0.4-0.2-0.5c-0.2-0.1-0.3-0.1-0.5-0.1H222c-0.1,0-0.2,0-0.2,0.1
				c0,0.1,0,0.1,0,0.2v0.8c0,0.1,0,0.1,0,0.2C221.8,118.3,221.9,118.4,222,118.4L222,118.4z M344.7,117.8c0,0.1,0,0.1,0,0.2v0.7
				c0,0.1,0,0.1,0,0.2c0,0,0.1,0,0.2,0l1.7-0.3v7.3h-1.8c-0.1,0-0.2,0-0.2,0.1c0,0.1,0,0.1,0,0.2v0.8c0,0.1,0,0.1,0,0.2
				c0,0,0.1,0.1,0.2,0.1h5.1c0.1,0,0.2,0,0.2-0.1c0-0.1,0-0.1,0-0.2v-0.8c0-0.1,0-0.1,0-0.2c0,0-0.1-0.1-0.2-0.1h-1.8v-8.5
				c0-0.2-0.1-0.4-0.3-0.5c-0.2-0.1-0.4-0.1-0.6,0l-2.3,0.7C344.9,117.7,344.8,117.8,344.7,117.8L344.7,117.8z M252.2,101h5.1
				c0.1,0,0.2,0,0.2-0.1c0-0.1,0-0.1,0-0.2v-0.8c0-0.1,0-0.1,0-0.2c0,0-0.1-0.1-0.2-0.1h-1.8v-8.5c0-0.2-0.1-0.4-0.3-0.5
				c-0.2-0.1-0.4-0.1-0.6,0l-2.3,0.7c-0.1,0-0.2,0.1-0.2,0.1c0,0.1,0,0.1,0,0.2v0.7c0,0.1,0,0.1,0,0.2c0,0,0.1,0,0.2,0l1.7-0.3v7.3
				h-1.8c-0.1,0-0.2,0-0.2,0.1c0,0.1,0,0.1,0,0.2v0.8c0,0.1,0,0.1,0,0.2C252.1,101,252.1,101,252.2,101L252.2,101z M203.4,171.1
				c-0.3-0.5-0.7-0.8-1.2-1.1c-0.6-0.3-1.2-0.4-1.8-0.4c-0.6,0-1.2,0.1-1.8,0.4c-0.5,0.2-0.9,0.6-1.3,1.1c-0.3,0.5-0.6,1.1-0.7,1.7
				c-0.2,0.7-0.3,1.4-0.2,2.1c0,0.7,0.1,1.4,0.2,2.1c0.1,0.6,0.4,1.2,0.7,1.7c0.3,0.5,0.7,0.8,1.2,1.1c1.1,0.5,2.5,0.5,3.6,0
				c0.5-0.2,0.9-0.6,1.3-1.1c0.3-0.5,0.6-1.1,0.7-1.7c0.2-0.7,0.2-1.4,0.2-2.1c0-0.7-0.1-1.4-0.2-2.1
				C204,172.1,203.7,171.6,203.4,171.1L203.4,171.1z M202.7,176.3c-0.1,0.4-0.2,0.9-0.4,1.3c-0.2,0.4-0.4,0.7-0.8,0.9
				c-0.4,0.2-0.8,0.4-1.2,0.3c-0.4,0-0.9-0.1-1.2-0.3c-0.3-0.2-0.6-0.6-0.8-0.9c-0.2-0.4-0.3-0.8-0.4-1.3c-0.1-0.5-0.1-1-0.1-1.5
				c0-0.5,0-1,0.1-1.5c0.1-0.4,0.2-0.9,0.4-1.3c0.2-0.4,0.4-0.7,0.8-0.9c0.7-0.5,1.7-0.5,2.4,0c0.3,0.2,0.6,0.5,0.8,0.9
				c0.2,0.4,0.3,0.8,0.4,1.3c0.1,0.5,0.1,1,0.1,1.5C202.8,175.4,202.8,175.9,202.7,176.3L202.7,176.3z M276.5,153.6h5.1
				c0.1,0,0.2,0,0.2-0.1c0-0.1,0-0.1,0-0.2v-0.8c0-0.1,0-0.1,0-0.2c0,0-0.1-0.1-0.2-0.1h-1.8v-8.5c0-0.2-0.1-0.4-0.3-0.5
				c-0.2-0.1-0.4-0.1-0.6,0l-2.3,0.7c-0.1,0-0.2,0.1-0.2,0.1c0,0.1,0,0.1,0,0.2v0.7c0,0.1,0,0.1,0,0.2c0,0,0.1,0,0.2,0l1.7-0.3v7.3
				h-1.8c-0.1,0-0.2,0-0.2,0.1c0,0.1,0,0.1,0,0.2v0.8c0,0.1,0,0.1,0,0.2C276.3,153.6,276.4,153.6,276.5,153.6L276.5,153.6z
				 M305.9,127.2h5.1c0.1,0,0.2,0,0.2-0.1c0-0.1,0-0.1,0-0.2v-0.8c0-0.1,0-0.1,0-0.2c0,0-0.1-0.1-0.2-0.1h-1.8v-8.5
				c0-0.2-0.1-0.4-0.3-0.5c-0.2-0.1-0.4-0.1-0.6,0l-2.3,0.7c-0.1,0-0.2,0.1-0.2,0.1c0,0.1,0,0.1,0,0.2v0.7c0,0.1,0,0.1,0,0.2
				c0,0,0.1,0,0.2,0l1.7-0.3v7.3h-1.8c-0.1,0-0.2,0-0.2,0.1c0,0.1,0,0.1,0,0.2v0.8c0,0.1,0,0.1,0,0.2
				C305.7,127.2,305.8,127.2,305.9,127.2L305.9,127.2z M285.6,94.4c-0.2,0.2-0.3,0.3-0.5,0.5c-0.3,0.2-0.5,0.4-0.8,0.5
				c-0.3,0.2-0.7,0.4-1.1,0.7c-0.5,0.3-0.9,0.7-1.3,1.1c-0.4,0.4-0.7,0.9-1,1.4c-0.2,0.4-0.3,0.7-0.3,1.1c0,0.3,0.1,0.6,0.3,0.9
				c0.3,0.2,0.6,0.3,0.9,0.3h5.5c0.1,0,0.2,0,0.2-0.1c0-0.1,0-0.1,0-0.2v-0.8c0-0.1,0-0.1,0-0.2c0,0-0.1-0.1-0.2-0.1h-5.1
				c0.2-0.7,0.6-1.3,1.1-1.8c0.5-0.5,1.1-0.9,1.7-1.3c0.4-0.2,0.7-0.4,1-0.7c0.3-0.2,0.6-0.5,0.8-0.7c0.2-0.2,0.4-0.5,0.5-0.8
				c0.1-0.3,0.2-0.7,0.2-1c0-0.4-0.1-0.8-0.3-1.2c-0.2-0.3-0.4-0.6-0.7-0.8c-0.3-0.2-0.7-0.4-1.1-0.5c-1-0.3-2-0.2-3,0.1
				c-0.5,0.2-1.1,0.5-1.5,0.8c-0.1,0.1-0.2,0.2-0.1,0.3c0,0,0,0,0,0l0.5,0.7c0,0.1,0.1,0.1,0.2,0.1c0.1,0,0.1,0,0.2-0.1
				c0.7-0.5,1.5-0.8,2.3-0.8c0.5,0,1,0.1,1.5,0.4c0.3,0.2,0.5,0.6,0.5,1c0,0.2,0,0.4-0.1,0.5C285.9,94.1,285.8,94.3,285.6,94.4z
				 M288.2,178.8c-0.4,0-0.8-0.1-1.2-0.2c-0.4-0.1-0.8-0.3-1.2-0.6c-0.2-0.1-0.3-0.1-0.4,0l-0.5,0.8c-0.1,0.1-0.1,0.2,0,0.3
				c0.5,0.4,1,0.7,1.6,0.8c0.6,0.1,1.2,0.2,1.8,0.2c0.5,0,1-0.1,1.5-0.2c0.4-0.1,0.8-0.4,1.2-0.7c0.3-0.3,0.6-0.6,0.7-1
				c0.2-0.4,0.3-0.8,0.3-1.3c0-0.3,0-0.6-0.1-0.9c-0.2-0.5-0.5-0.9-1-1.2c-0.2-0.1-0.5-0.2-0.8-0.3v-0.1c0.5-0.2,0.9-0.5,1.1-0.9
				c0.3-0.4,0.5-0.9,0.5-1.5c0-0.4-0.1-0.8-0.3-1.1c-0.2-0.3-0.4-0.6-0.7-0.8c-0.3-0.2-0.7-0.4-1.1-0.5c-0.4-0.1-0.8-0.2-1.3-0.2
				c-0.6,0-1.2,0.1-1.8,0.3c-0.3,0.1-0.6,0.2-0.8,0.3c-0.3,0.1-0.5,0.3-0.7,0.5c-0.1,0.1-0.1,0.2-0.1,0.3c0,0,0,0,0,0l0.5,0.7
				c0.1,0.2,0.2,0.2,0.4,0c0.3-0.2,0.7-0.4,1.1-0.5c0.4-0.1,0.8-0.2,1.3-0.2c0.2,0,0.5,0,0.7,0.1c0.2,0,0.4,0.1,0.6,0.2
				c0.2,0.1,0.3,0.3,0.4,0.4c0.1,0.2,0.2,0.4,0.2,0.6c0,0.4-0.2,0.9-0.5,1.1c-0.4,0.3-0.9,0.4-1.5,0.4h-0.4c-0.3,0-0.4,0.2-0.4,0.5
				v0.4c0,0.1,0,0.2,0.1,0.3c0.1,0.1,0.2,0.1,0.3,0.1h0.5c0.3,0,0.6,0,1,0.1c0.2,0.1,0.5,0.2,0.7,0.4c0.2,0.1,0.3,0.3,0.4,0.5
				c0.1,0.2,0.1,0.4,0.1,0.6c0,0.5-0.2,1-0.5,1.4C289.5,178.6,288.9,178.8,288.2,178.8z M261.7,170.4c-0.3-0.2-0.7-0.4-1.1-0.5
				c-1-0.3-2-0.2-3,0.1c-0.5,0.2-1.1,0.5-1.5,0.8c-0.1,0.1-0.2,0.2-0.1,0.3c0,0,0,0,0,0l0.5,0.7c0,0.1,0.1,0.1,0.2,0.1
				c0.1,0,0.1,0,0.2-0.1c0.7-0.5,1.5-0.8,2.3-0.8c0.5,0,1,0.1,1.5,0.4c0.3,0.2,0.5,0.6,0.5,1c0,0.2,0,0.4-0.1,0.5
				c-0.1,0.2-0.2,0.3-0.3,0.5c-0.2,0.2-0.3,0.3-0.5,0.5c-0.3,0.2-0.5,0.4-0.8,0.5c-0.3,0.2-0.7,0.4-1.1,0.7
				c-0.5,0.3-0.9,0.7-1.3,1.1c-0.4,0.4-0.7,0.9-1,1.4c-0.2,0.4-0.3,0.7-0.3,1.1c0,0.3,0.1,0.6,0.3,0.9c0.3,0.2,0.6,0.3,0.9,0.3h5.5
				c0.1,0,0.2,0,0.2-0.1c0-0.1,0-0.1,0-0.2V179c0-0.1,0-0.1,0-0.2c0,0-0.1-0.1-0.2-0.1h-5.1c0.2-0.7,0.6-1.3,1.1-1.8
				c0.5-0.5,1.1-0.9,1.7-1.3c0.4-0.2,0.7-0.4,1-0.7c0.3-0.2,0.6-0.5,0.8-0.7c0.2-0.2,0.4-0.5,0.5-0.8c0.1-0.3,0.2-0.7,0.2-1
				c0-0.4-0.1-0.8-0.3-1.2C262.3,170.9,262,170.6,261.7,170.4z M312.2,201.7c-0.2-0.2-0.4-0.4-0.6-0.5c-0.2-0.1-0.5-0.2-0.8-0.3
				v-0.1c0.5-0.2,0.9-0.5,1.1-0.9c0.3-0.4,0.5-0.9,0.5-1.5c0-0.4-0.1-0.8-0.3-1.1c-0.2-0.3-0.4-0.6-0.7-0.8c-0.3-0.2-0.7-0.4-1-0.5
				c-0.4-0.1-0.8-0.2-1.3-0.2c-0.6,0-1.2,0.1-1.8,0.3c-0.3,0.1-0.6,0.2-0.8,0.3c-0.3,0.1-0.5,0.3-0.7,0.5c-0.1,0.1-0.1,0.2-0.1,0.3
				c0,0,0,0,0,0l0.5,0.7c0.1,0.2,0.2,0.2,0.4,0c0.3-0.2,0.7-0.4,1.1-0.5c0.4-0.1,0.8-0.2,1.3-0.2c0.2,0,0.5,0,0.7,0.1
				c0.2,0,0.4,0.1,0.6,0.2c0.2,0.1,0.3,0.3,0.4,0.4c0.1,0.2,0.2,0.4,0.2,0.6c0,0.4-0.2,0.9-0.5,1.1c-0.4,0.3-0.9,0.4-1.5,0.4h-0.4
				c-0.3,0-0.4,0.2-0.4,0.5v0.4c0,0.1,0,0.2,0.1,0.3c0.1,0.1,0.2,0.1,0.3,0.1h0.5c0.3,0,0.6,0,1,0.1c0.2,0.1,0.5,0.2,0.7,0.4
				c0.2,0.1,0.3,0.3,0.4,0.5c0.1,0.2,0.1,0.4,0.1,0.6c0,0.5-0.2,1-0.5,1.4c-0.5,0.4-1.1,0.6-1.8,0.5c-0.4,0-0.8-0.1-1.2-0.2
				c-0.4-0.1-0.8-0.3-1.2-0.6c-0.2-0.1-0.3-0.1-0.4,0l-0.5,0.8c-0.1,0.1-0.1,0.2,0,0.3c0.5,0.4,1,0.7,1.6,0.8
				c0.6,0.1,1.2,0.2,1.8,0.2c0.5,0,1-0.1,1.5-0.2c0.4-0.1,0.8-0.4,1.2-0.7c0.3-0.3,0.6-0.6,0.7-1c0.2-0.4,0.3-0.8,0.3-1.3
				c0-0.3,0-0.6-0.1-0.9C312.5,202.1,312.4,201.9,312.2,201.7z M311.8,180.1c0.1,0,0.2,0,0.2-0.1c0-0.1,0-0.1,0-0.2V179
				c0-0.1,0-0.1,0-0.2c0,0-0.1-0.1-0.2-0.1h-5.1c0.2-0.7,0.6-1.3,1.1-1.8c0.5-0.5,1.1-0.9,1.7-1.3c0.4-0.2,0.7-0.4,1-0.7
				c0.3-0.2,0.6-0.5,0.8-0.7c0.2-0.2,0.4-0.5,0.5-0.8c0.1-0.3,0.2-0.7,0.2-1c0-0.4-0.1-0.8-0.3-1.2c-0.2-0.3-0.4-0.6-0.7-0.8
				c-0.3-0.2-0.7-0.4-1.1-0.5c-1-0.3-2-0.2-3,0.1c-0.5,0.2-1.1,0.5-1.5,0.8c-0.1,0.1-0.2,0.2-0.1,0.3c0,0,0,0,0,0l0.5,0.7
				c0,0.1,0.1,0.1,0.2,0.1c0.1,0,0.1,0,0.2-0.1c0.7-0.5,1.5-0.8,2.3-0.8c0.5,0,1,0.1,1.5,0.4c0.3,0.2,0.5,0.6,0.5,1
				c0,0.2,0,0.4-0.1,0.5c-0.1,0.2-0.2,0.3-0.3,0.5c-0.2,0.2-0.3,0.3-0.5,0.5c-0.3,0.2-0.5,0.4-0.8,0.5c-0.3,0.2-0.7,0.4-1.1,0.7
				c-0.5,0.3-0.9,0.7-1.3,1.1c-0.4,0.4-0.7,0.9-1,1.4c-0.2,0.4-0.3,0.7-0.3,1.1c0,0.3,0.1,0.6,0.3,0.9c0.3,0.2,0.6,0.3,0.9,0.3
				L311.8,180.1z M223.8,205h-5.1c0.2-0.7,0.6-1.3,1.1-1.8c0.5-0.5,1.1-0.9,1.7-1.3c0.4-0.2,0.7-0.4,1-0.7c0.3-0.2,0.6-0.5,0.8-0.7
				c0.2-0.2,0.4-0.5,0.5-0.8c0.1-0.3,0.2-0.7,0.2-1c0-0.4-0.1-0.8-0.3-1.2c-0.2-0.3-0.4-0.6-0.7-0.8c-0.3-0.2-0.7-0.4-1.1-0.5
				c-1-0.3-2-0.2-3,0.1c-0.5,0.2-1.1,0.5-1.5,0.8c-0.1,0.1-0.2,0.2-0.1,0.3c0,0,0,0,0,0l0.5,0.7c0,0.1,0.1,0.1,0.2,0.1
				c0.1,0,0.1,0,0.2-0.1c0.7-0.5,1.5-0.8,2.3-0.8c0.5,0,1,0.1,1.5,0.4c0.3,0.2,0.5,0.6,0.5,1c0,0.2,0,0.4-0.1,0.5
				c-0.1,0.2-0.2,0.3-0.3,0.5c-0.2,0.2-0.3,0.3-0.5,0.5c-0.3,0.2-0.5,0.4-0.8,0.5c-0.3,0.2-0.7,0.4-1.1,0.7
				c-0.5,0.3-0.9,0.7-1.3,1.1c-0.4,0.4-0.7,0.9-1,1.4c-0.2,0.4-0.3,0.7-0.3,1.1c0,0.3,0.1,0.6,0.3,0.9c0.3,0.2,0.6,0.3,0.9,0.3h5.5
				c0.1,0,0.2,0,0.2-0.1c0-0.1,0-0.1,0-0.2v-0.8c0-0.1,0-0.1,0-0.2C224,205.1,224,205,223.8,205L223.8,205z M287,125.7
				c0.4-0.5,0.7-1.2,0.9-1.8c0.2-0.7,0.3-1.5,0.3-2.3c0-0.7-0.1-1.3-0.3-2c-0.2-0.5-0.4-1.1-0.8-1.5c-0.3-0.4-0.8-0.7-1.3-0.9
				c-0.6-0.2-1.2-0.3-1.8-0.3c-0.5,0-1,0.1-1.4,0.2c-0.4,0.1-0.8,0.3-1.2,0.6c-0.4,0.3-0.6,0.7-0.8,1.1c-0.2,0.5-0.3,1-0.3,1.5
				c0,0.9,0.4,1.8,1.2,2.4c0.4,0.3,0.8,0.5,1.2,0.6c0.5,0.1,0.9,0.2,1.4,0.2c0.4,0,0.9,0,1.3-0.1c0.4-0.1,0.8-0.2,1.2-0.3
				c-0.1,0.4-0.2,0.8-0.3,1.2c-0.2,0.4-0.4,0.7-0.7,1c-0.3,0.3-0.6,0.5-1,0.6c-0.4,0.2-0.9,0.2-1.3,0.2c-0.1,0-0.2,0-0.4,0
				c-0.1,0-0.3,0-0.4-0.1c-0.1,0-0.2-0.1-0.4-0.1c-0.1,0-0.2,0-0.2-0.1c-0.1,0-0.2,0-0.2,0c0,0-0.1,0.1-0.1,0.2l-0.3,0.8
				c0,0.1,0,0.1,0,0.2c0,0,0.1,0.1,0.2,0.1c0.3,0.1,0.6,0.2,0.9,0.2c0.3,0,0.6,0.1,0.9,0.1c0.8,0,1.6-0.1,2.3-0.5
				C286.1,126.7,286.6,126.3,287,125.7z M285.2,122c-0.5,0.1-0.9,0.1-1.4,0.1c-0.3,0-0.6,0-0.9-0.1c-0.2-0.1-0.5-0.2-0.7-0.4
				c-0.2-0.2-0.3-0.4-0.4-0.6c-0.1-0.2-0.1-0.5-0.1-0.8c0-0.6,0.2-1.1,0.7-1.5c0.2-0.2,0.5-0.3,0.7-0.4c0.3-0.1,0.6-0.1,0.8-0.1
				c0.3,0,0.7,0.1,1,0.2c0.3,0.1,0.6,0.4,0.8,0.6c0.3,0.3,0.5,0.6,0.6,0.9c0.1,0.4,0.2,0.8,0.2,1.2v0.2c0,0.1,0,0.2,0,0.3
				C286.1,121.8,285.7,121.9,285.2,122z M286.4,153.4c0.6,0.2,1.2,0.3,1.8,0.3c0.5,0,1-0.1,1.4-0.2c0.4-0.1,0.9-0.3,1.2-0.6
				c0.4-0.3,0.6-0.7,0.8-1.1c0.2-0.5,0.3-1,0.3-1.5c0-0.5-0.1-1-0.3-1.4c-0.2-0.4-0.5-0.7-0.8-1c-0.3-0.3-0.7-0.5-1.2-0.6
				c-0.5-0.1-0.9-0.2-1.4-0.2c-0.2,0-0.4,0-0.7,0c-0.2,0-0.5,0-0.7,0.1c-0.2,0-0.5,0.1-0.7,0.1c-0.2,0-0.4,0.1-0.6,0.2
				c0.1-0.4,0.2-0.8,0.3-1.2c0.2-0.4,0.4-0.7,0.6-1c0.3-0.3,0.6-0.5,1-0.6c0.4-0.2,0.9-0.2,1.3-0.2c0.2,0,0.5,0,0.7,0.1
				c0.2,0,0.4,0.1,0.6,0.1c0.1,0,0.2,0,0.2,0c0.1,0,0.1-0.1,0.1-0.2l0.3-0.8c0-0.1,0-0.2,0-0.2c0,0-0.1-0.1-0.2-0.1
				c-0.3-0.1-0.6-0.2-0.9-0.2c-0.3,0-0.6-0.1-0.9-0.1c-0.8,0-1.6,0.1-2.3,0.5c-0.6,0.3-1.1,0.7-1.5,1.2c-0.4,0.5-0.7,1.2-0.8,1.8
				c-0.2,0.7-0.3,1.5-0.3,2.3c0,0.7,0.1,1.3,0.3,2c0.2,0.5,0.4,1.1,0.8,1.5C285.4,152.9,285.9,153.2,286.4,153.4L286.4,153.4z
				 M285.5,149.3c0-0.1,0-0.2,0-0.3c0.5-0.1,0.9-0.2,1.4-0.3c0.5-0.1,0.9-0.1,1.4-0.1c0.3,0,0.6,0,0.9,0.1c0.2,0.1,0.5,0.2,0.7,0.4
				c0.2,0.2,0.3,0.4,0.4,0.6c0.1,0.2,0.1,0.5,0.1,0.8c0,0.6-0.2,1.1-0.6,1.5c-0.5,0.4-1.1,0.6-1.7,0.5c-0.4,0-0.7-0.1-1.1-0.2
				c-0.3-0.1-0.6-0.4-0.8-0.6c-0.2-0.3-0.4-0.6-0.5-0.9c-0.1-0.4-0.2-0.8-0.2-1.2L285.5,149.3z M315.5,127c1.1,0.5,2.5,0.5,3.6,0
				c0.5-0.2,0.9-0.6,1.3-1.1c0.3-0.5,0.6-1.1,0.7-1.7c0.2-0.7,0.2-1.4,0.2-2.1c0-0.7-0.1-1.4-0.2-2.1c-0.1-0.6-0.4-1.1-0.7-1.6
				c-0.3-0.5-0.7-0.8-1.2-1.1c-0.6-0.3-1.2-0.4-1.8-0.4c-0.6,0-1.2,0.1-1.8,0.4c-0.5,0.2-0.9,0.6-1.3,1.1c-0.4,0.5-0.6,1.1-0.7,1.7
				c-0.2,0.7-0.3,1.4-0.2,2.1c0,0.7,0.1,1.4,0.2,2.1c0.1,0.6,0.4,1.2,0.7,1.7C314.6,126.4,315,126.8,315.5,127L315.5,127z
				 M314.9,120.7c0.1-0.4,0.2-0.9,0.4-1.3c0.2-0.4,0.4-0.7,0.8-0.9c0.7-0.5,1.7-0.5,2.4,0c0.3,0.2,0.6,0.5,0.8,0.9
				c0.2,0.4,0.3,0.8,0.4,1.3c0.1,0.5,0.1,1,0.1,1.5c0,0.5,0,1-0.1,1.4c-0.1,0.4-0.2,0.9-0.4,1.3c-0.2,0.4-0.4,0.7-0.8,0.9
				c-0.4,0.2-0.8,0.4-1.2,0.3c-0.4,0-0.9-0.1-1.2-0.3c-0.3-0.2-0.6-0.6-0.8-0.9c-0.2-0.4-0.3-0.8-0.4-1.3c-0.1-0.5-0.1-1-0.1-1.5
				C314.8,121.6,314.8,121.1,314.9,120.7L314.9,120.7z M314.8,153.6c0,0.1,0.1,0.1,0.2,0.1h1.1c0.1,0,0.2,0,0.2-0.1
				c0.1-0.1,0.1-0.1,0.2-0.2l4.3-8c0.1-0.1,0.1-0.3,0.2-0.4c0-0.1,0.1-0.3,0.1-0.4v-0.4c0-0.2-0.1-0.4-0.2-0.5
				c-0.2-0.1-0.3-0.1-0.5-0.1H314c-0.1,0-0.2,0-0.2,0.1c0,0.1,0,0.1,0,0.2v0.8c0,0.1,0,0.1,0,0.2c0,0,0.1,0.1,0.2,0.1h5.4l-4.5,8.5
				C314.8,153.4,314.8,153.5,314.8,153.6L314.8,153.6z M345.1,153.5c0.5,0.2,1.1,0.2,1.7,0.2c0.6,0,1.2-0.1,1.7-0.3
				c0.4-0.2,0.8-0.4,1.2-0.7c0.3-0.3,0.5-0.6,0.7-1c0.1-0.3,0.2-0.7,0.2-1c0-0.6-0.2-1.1-0.5-1.6c-0.3-0.5-0.8-0.9-1.4-1v0
				c0.3-0.1,0.5-0.2,0.7-0.4c0.2-0.2,0.3-0.4,0.5-0.6c0.1-0.2,0.2-0.4,0.3-0.6c0.1-0.2,0.1-0.4,0.1-0.6c0-0.7-0.3-1.5-0.9-1.9
				c-0.3-0.3-0.7-0.4-1.1-0.6c-0.5-0.1-0.9-0.2-1.4-0.2c-0.5,0-0.9,0.1-1.3,0.2c-0.4,0.1-0.8,0.3-1.1,0.6c-0.3,0.2-0.5,0.6-0.7,0.9
				c-0.2,0.4-0.3,0.8-0.3,1.2c0,0.2,0,0.4,0.1,0.5c0.1,0.2,0.1,0.4,0.3,0.6c0.1,0.2,0.3,0.4,0.5,0.5c0.2,0.2,0.4,0.3,0.7,0.4v0
				c-0.3,0.1-0.5,0.2-0.7,0.4c-0.2,0.2-0.4,0.4-0.6,0.6c-0.2,0.2-0.3,0.5-0.4,0.8c-0.1,0.3-0.1,0.6-0.1,0.9c0,0.4,0.1,0.8,0.2,1.2
				c0.2,0.4,0.4,0.7,0.7,1C344.3,153.2,344.7,153.4,345.1,153.5L345.1,153.5z M345,145.6c0.1-0.2,0.2-0.4,0.3-0.5
				c0.2-0.2,0.4-0.3,0.6-0.4c0.3-0.1,0.6-0.1,0.8-0.1c0.5,0,1,0.1,1.4,0.5c0.3,0.3,0.5,0.7,0.5,1.1c0,0.2-0.1,0.4-0.2,0.6
				c-0.1,0.2-0.3,0.3-0.4,0.5c-0.2,0.1-0.4,0.2-0.6,0.3c-0.2,0.1-0.5,0.1-0.7,0.1c-0.2,0-0.5,0-0.7-0.1c-0.2-0.1-0.4-0.2-0.6-0.3
				c-0.2-0.1-0.3-0.3-0.4-0.5c-0.1-0.2-0.2-0.4-0.2-0.6C344.9,146,344.9,145.8,345,145.6L345,145.6z M344.7,149.9
				c0.1-0.2,0.3-0.4,0.5-0.6c0.2-0.2,0.5-0.3,0.7-0.4c0.3-0.1,0.6-0.1,0.8-0.1c0.3,0,0.6,0,0.9,0.1c0.3,0.1,0.5,0.2,0.7,0.3
				c0.2,0.1,0.4,0.3,0.5,0.6c0.1,0.2,0.2,0.5,0.2,0.8c0,0.2,0,0.4-0.1,0.6c-0.1,0.2-0.2,0.4-0.4,0.6c-0.2,0.2-0.4,0.3-0.7,0.4
				c-0.3,0.1-0.7,0.2-1.1,0.2c-0.4,0-0.7,0-1.1-0.2c-0.3-0.1-0.5-0.2-0.7-0.4c-0.2-0.2-0.3-0.4-0.4-0.6c-0.1-0.2-0.1-0.4-0.1-0.7
				C344.5,150.4,344.6,150.1,344.7,149.9L344.7,149.9z M350.8,175.3c-0.2-0.4-0.4-0.7-0.7-1c-0.3-0.3-0.7-0.5-1.1-0.6
				c-0.4-0.1-0.9-0.2-1.3-0.2c-0.4,0-0.8,0-1.2,0.1c-0.4,0.1-0.8,0.2-1.2,0.3l0.3-2.8h4.6c0.1,0,0.2,0,0.2-0.1c0-0.1,0.1-0.1,0-0.2
				v-0.8c0-0.1,0-0.1,0-0.2c0,0-0.1-0.1-0.2-0.1h-5c-0.2,0-0.5,0.1-0.6,0.2c-0.2,0.2-0.3,0.5-0.3,0.7l-0.4,3.9
				c-0.1,0.3,0.1,0.6,0.4,0.7l0.2,0.1c0.1,0,0.2,0.1,0.3,0.1c0.1,0,0.2,0,0.4-0.1c0.2-0.1,0.4-0.2,0.6-0.2c0.2-0.1,0.3-0.1,0.5-0.2
				c0.2-0.1,0.4-0.1,0.6-0.1c0.2,0,0.5,0,0.7,0c0.3,0,0.5,0,0.8,0.1c0.2,0.1,0.5,0.2,0.7,0.3c0.2,0.1,0.4,0.3,0.5,0.6
				c0.1,0.3,0.2,0.5,0.2,0.8c0,0.6-0.2,1.1-0.7,1.5c-0.5,0.4-1.2,0.6-1.8,0.6c-0.5,0-0.9-0.1-1.4-0.2c-0.4-0.1-0.8-0.3-1.2-0.6
				c-0.2-0.1-0.3-0.1-0.4,0l-0.5,0.8c-0.1,0.1-0.1,0.2,0,0.3c0.2,0.2,0.5,0.4,0.8,0.5c0.3,0.1,0.6,0.2,0.9,0.3
				c0.3,0.1,0.6,0.1,0.9,0.2c0.3,0,0.6,0,1,0c0.5,0,1.1-0.1,1.6-0.2c0.5-0.1,0.9-0.4,1.2-0.7c0.3-0.3,0.6-0.7,0.8-1.1
				c0.2-0.5,0.3-1,0.3-1.5C351.1,176.2,351,175.7,350.8,175.3L350.8,175.3z M341.4,178.6h-5.1c0.2-0.7,0.6-1.3,1.1-1.8
				c0.5-0.5,1.1-0.9,1.7-1.3c0.4-0.2,0.7-0.4,1-0.7c0.3-0.2,0.6-0.5,0.8-0.7c0.2-0.2,0.4-0.5,0.5-0.8c0.1-0.3,0.2-0.7,0.2-1
				c0-0.4-0.1-0.8-0.3-1.2c-0.2-0.3-0.4-0.6-0.7-0.8c-0.3-0.2-0.7-0.4-1.1-0.5c-0.4-0.1-0.9-0.2-1.3-0.2c-0.6,0-1.1,0.1-1.7,0.3
				c-0.5,0.2-1.1,0.5-1.5,0.8c-0.1,0.1-0.2,0.2-0.1,0.3c0,0,0,0,0,0l0.5,0.7c0,0.1,0.1,0.1,0.2,0.1c0.1,0,0.1,0,0.2-0.1
				c0.7-0.5,1.5-0.8,2.3-0.8c0.5,0,1,0.1,1.5,0.4c0.3,0.2,0.5,0.6,0.5,1c0,0.2,0,0.4-0.1,0.5c-0.1,0.2-0.2,0.3-0.3,0.5
				c-0.2,0.2-0.3,0.3-0.5,0.5c-0.3,0.2-0.5,0.4-0.8,0.5c-0.3,0.2-0.7,0.4-1.1,0.7c-0.5,0.3-0.9,0.7-1.3,1.1c-0.4,0.4-0.7,0.9-1,1.4
				c-0.2,0.4-0.3,0.7-0.3,1.1c0,0.3,0.1,0.6,0.3,0.9c0.3,0.2,0.6,0.3,0.9,0.3h5.5c0.1,0,0.2,0,0.2-0.1c0-0.1,0-0.1,0-0.2v-0.8
				c0-0.1,0-0.1,0-0.2C341.6,178.6,341.5,178.6,341.4,178.6L341.4,178.6z M321.5,176.5h-1v-6c0-0.2,0-0.5-0.2-0.6
				c-0.2-0.1-0.4-0.2-0.6-0.2h-0.5c-0.2,0-0.4,0.1-0.5,0.2c-0.1,0.1-0.3,0.3-0.4,0.4l-4.3,5.6c-0.1,0.1-0.2,0.3-0.3,0.5
				c0,0.2-0.1,0.3-0.1,0.5v0.2c0,0.2,0.1,0.5,0.2,0.6c0.2,0.1,0.4,0.1,0.6,0.1h4.6v2c0,0.1,0,0.2,0.1,0.2c0.1,0,0.1,0,0.2,0h1
				c0.1,0,0.1,0,0.2,0c0,0,0.1-0.1,0.1-0.2v-2h1c0.1,0,0.2,0,0.2-0.1c0-0.1,0.1-0.1,0.1-0.2v-0.7c0-0.1,0-0.1-0.1-0.2
				C321.7,176.6,321.6,176.5,321.5,176.5L321.5,176.5z M319,176.5h-3.7l0-0.1l3.7-4.8l0,0V176.5z M291.7,197.4
				c-0.3-0.5-0.7-0.8-1.2-1.1c-0.6-0.3-1.2-0.4-1.8-0.4c-0.6,0-1.2,0.1-1.8,0.4c-0.5,0.2-0.9,0.6-1.3,1.1c-0.3,0.5-0.6,1.1-0.7,1.7
				c-0.2,0.7-0.3,1.4-0.2,2.1c0,0.7,0.1,1.4,0.2,2.1c0.1,0.6,0.4,1.2,0.7,1.7c0.3,0.5,0.7,0.8,1.2,1.1c1.1,0.5,2.5,0.5,3.6,0
				c0.5-0.2,0.9-0.6,1.3-1.1c0.3-0.5,0.6-1.1,0.7-1.7c0.2-0.7,0.2-1.4,0.2-2.1c0-0.7-0.1-1.4-0.2-2.1
				C292.2,198.4,292,197.9,291.7,197.4z M291,202.6c-0.1,0.4-0.2,0.9-0.4,1.3c-0.2,0.4-0.4,0.7-0.8,0.9c-0.4,0.2-0.8,0.4-1.2,0.3
				c-0.4,0-0.9-0.1-1.2-0.3c-0.3-0.2-0.6-0.6-0.8-0.9c-0.2-0.4-0.3-0.8-0.4-1.3c-0.1-0.5-0.1-1-0.1-1.5c0-0.5,0-1,0.1-1.5
				c0.1-0.4,0.2-0.9,0.4-1.3c0.2-0.4,0.4-0.7,0.8-0.9c0.7-0.5,1.7-0.5,2.4,0c0.3,0.2,0.6,0.5,0.8,0.9c0.2,0.4,0.3,0.8,0.4,1.3
				c0.1,0.5,0.1,1,0.1,1.5C291.1,201.7,291.1,202.1,291,202.6L291,202.6z M231.7,200.9L231.7,200.9c0.3-0.1,0.5-0.3,0.7-0.5
				c0.2-0.2,0.3-0.4,0.5-0.6c0.1-0.2,0.2-0.4,0.3-0.6c0.1-0.2,0.1-0.4,0.1-0.6c0-0.7-0.3-1.5-0.9-1.9c-0.3-0.3-0.7-0.4-1.1-0.6
				c-0.5-0.1-0.9-0.2-1.4-0.2c-0.5,0-0.9,0.1-1.3,0.2c-0.4,0.1-0.8,0.3-1.1,0.6c-0.3,0.2-0.5,0.6-0.7,0.9c-0.2,0.4-0.3,0.8-0.3,1.2
				c0,0.2,0,0.4,0.1,0.5c0.1,0.2,0.1,0.4,0.3,0.6c0.1,0.2,0.3,0.4,0.5,0.5c0.2,0.2,0.4,0.3,0.7,0.4v0c-0.3,0.1-0.5,0.2-0.7,0.4
				c-0.2,0.2-0.4,0.4-0.6,0.6c-0.2,0.2-0.3,0.5-0.4,0.8c-0.1,0.3-0.1,0.6-0.1,0.9c0,0.4,0.1,0.8,0.2,1.2c0.2,0.4,0.4,0.7,0.7,1
				c0.3,0.3,0.7,0.5,1.2,0.6c0.5,0.2,1.1,0.2,1.7,0.2c0.6,0,1.2-0.1,1.7-0.3c0.4-0.2,0.8-0.4,1.2-0.7c0.3-0.3,0.5-0.6,0.7-1
				c0.1-0.3,0.2-0.7,0.2-1c0-0.6-0.2-1.1-0.5-1.6C232.8,201.4,232.3,201.1,231.7,200.9L231.7,200.9z M228,198.3
				c0.1-0.2,0.2-0.4,0.3-0.5c0.2-0.2,0.4-0.3,0.6-0.4c0.3-0.1,0.6-0.1,0.8-0.1c0.5,0,1,0.1,1.4,0.5c0.3,0.3,0.5,0.7,0.5,1.1
				c0,0.2-0.1,0.4-0.2,0.6c-0.1,0.2-0.3,0.3-0.4,0.5c-0.2,0.1-0.4,0.2-0.6,0.3c-0.2,0.1-0.5,0.1-0.7,0.1c-0.2,0-0.5,0-0.7-0.1
				c-0.2-0.1-0.4-0.2-0.6-0.3c-0.2-0.1-0.3-0.3-0.4-0.5c-0.1-0.2-0.2-0.4-0.2-0.6C227.9,198.7,227.9,198.5,228,198.3L228,198.3z
				 M231.9,204c-0.1,0.2-0.2,0.4-0.4,0.6c-0.2,0.2-0.4,0.3-0.7,0.4c-0.3,0.1-0.7,0.2-1.1,0.2c-0.4,0-0.7,0-1.1-0.1
				c-0.3-0.1-0.5-0.2-0.7-0.4c-0.2-0.2-0.3-0.4-0.4-0.6c-0.1-0.2-0.1-0.4-0.1-0.7c0-0.3,0.1-0.5,0.2-0.8c0.1-0.2,0.3-0.4,0.5-0.6
				c0.2-0.2,0.5-0.3,0.7-0.4c0.3-0.1,0.6-0.1,0.8-0.1c0.3,0,0.6,0,0.9,0.1c0.3,0.1,0.5,0.2,0.7,0.3c0.2,0.2,0.4,0.3,0.5,0.6
				c0.1,0.2,0.2,0.5,0.2,0.8C232,203.6,232,203.8,231.9,204L231.9,204z M227.8,178.7c-0.1,0-0.2,0-0.2,0.1c0,0.1,0,0.1,0,0.2v0.8
				c0,0.1,0,0.1,0,0.2c0,0,0.1,0.1,0.2,0.1h5.1c0.1,0,0.2,0,0.2-0.1c0-0.1,0-0.1,0-0.2V179c0-0.1,0-0.1,0-0.2c0,0-0.1-0.1-0.2-0.1
				h-1.8v-8.5c0-0.2-0.1-0.4-0.3-0.5c-0.2-0.1-0.4-0.1-0.6,0l-2.3,0.7c-0.1,0-0.2,0.1-0.2,0.1c0,0.1,0,0.1,0,0.2v0.7
				c0,0.1,0,0.1,0,0.2c0,0,0.1,0,0.2,0l1.7-0.3v7.3L227.8,178.7z M224.3,178.7h-5.1c0.2-0.7,0.6-1.3,1.1-1.8
				c0.5-0.5,1.1-0.9,1.7-1.3c0.4-0.2,0.7-0.4,1-0.7c0.3-0.2,0.6-0.5,0.8-0.7c0.2-0.2,0.4-0.5,0.5-0.8c0.1-0.3,0.2-0.7,0.2-1
				c0-0.4-0.1-0.8-0.3-1.2c-0.2-0.3-0.4-0.6-0.7-0.8c-0.3-0.2-0.7-0.4-1.1-0.5c-1-0.3-2-0.2-3,0.1c-0.5,0.2-1.1,0.5-1.5,0.8
				c-0.1,0.1-0.2,0.2-0.1,0.3c0,0,0,0,0,0l0.5,0.7c0,0.1,0.1,0.1,0.2,0.1c0.1,0,0.1,0,0.2-0.1c0.7-0.5,1.5-0.8,2.3-0.8
				c0.5,0,1,0.1,1.5,0.4c0.3,0.2,0.5,0.6,0.5,1c0,0.2,0,0.4-0.1,0.5c-0.1,0.2-0.2,0.3-0.3,0.5c-0.2,0.2-0.3,0.3-0.5,0.5
				c-0.3,0.2-0.5,0.4-0.8,0.5c-0.3,0.2-0.7,0.4-1.1,0.7c-0.5,0.3-0.9,0.7-1.3,1.1c-0.4,0.4-0.7,0.9-1,1.4c-0.2,0.4-0.3,0.7-0.3,1.1
				c0,0.3,0.1,0.6,0.3,0.9c0.3,0.2,0.6,0.3,0.9,0.3h5.5c0.1,0,0.2,0,0.2-0.1c0-0.1,0-0.1,0-0.2V179c0-0.1,0-0.1,0-0.2
				C224.5,178.8,224.4,178.7,224.3,178.7L224.3,178.7z M253.2,204.9H248c0.2-0.7,0.6-1.3,1.1-1.8c0.5-0.5,1.1-0.9,1.7-1.3
				c0.4-0.2,0.7-0.4,1-0.7c0.3-0.2,0.6-0.5,0.8-0.7c0.2-0.2,0.4-0.5,0.5-0.8c0.1-0.3,0.2-0.7,0.2-1c0-0.4-0.1-0.8-0.3-1.2
				c-0.2-0.3-0.4-0.6-0.7-0.8c-0.3-0.2-0.7-0.4-1.1-0.5c-1-0.3-2-0.2-3,0.1c-0.5,0.2-1.1,0.5-1.5,0.8c-0.1,0.1-0.2,0.2-0.1,0.3
				c0,0,0,0,0,0l0.5,0.7c0,0.1,0.1,0.1,0.2,0.1c0.1,0,0.1,0,0.2-0.1c0.7-0.5,1.5-0.8,2.3-0.8c0.5,0,1,0.1,1.5,0.4
				c0.3,0.2,0.5,0.6,0.5,1c0,0.2,0,0.4-0.1,0.5c-0.1,0.2-0.2,0.3-0.3,0.5c-0.2,0.2-0.3,0.3-0.5,0.5c-0.3,0.2-0.5,0.4-0.8,0.5
				c-0.3,0.2-0.7,0.4-1.1,0.7c-0.5,0.3-0.9,0.7-1.3,1.1c-0.4,0.4-0.7,0.9-1,1.4c-0.2,0.4-0.3,0.7-0.3,1.1c0,0.3,0.1,0.6,0.3,0.9
				c0.3,0.2,0.6,0.3,0.9,0.3h5.5c0.1,0,0.2,0,0.2-0.1c0-0.1,0-0.1,0-0.2v-0.8c0-0.1,0-0.1,0-0.2
				C253.3,204.9,253.3,204.9,253.2,204.9L253.2,204.9z M230.4,153.4c0,0.1,0,0.2,0.1,0.2c0.1,0,0.1,0,0.2,0h1c0.1,0,0.1,0,0.2,0
				c0,0,0.1-0.1,0.1-0.2v-2h1c0.1,0,0.2,0,0.2-0.1c0-0.1,0.1-0.1,0.1-0.2v-0.7c0-0.1,0-0.1-0.1-0.2c-0.1,0-0.1-0.1-0.2-0.1h-1v-6
				c0-0.2,0-0.5-0.2-0.6c-0.2-0.1-0.4-0.2-0.6-0.2h-0.5c-0.2,0-0.4,0.1-0.5,0.2c-0.1,0.1-0.3,0.3-0.4,0.4l-4.3,5.6
				c-0.1,0.1-0.2,0.3-0.3,0.5c0,0.2-0.1,0.3-0.1,0.5v0.2c0,0.2,0.1,0.5,0.2,0.6c0.2,0.1,0.4,0.1,0.6,0.1h4.6L230.4,153.4z
				 M226.7,150.2L226.7,150.2l3.6-4.9l0,0v4.8L226.7,150.2z M282.3,201.7c-0.2-0.2-0.4-0.4-0.6-0.5c-0.2-0.1-0.5-0.2-0.8-0.3v-0.1
				c0.5-0.2,0.9-0.5,1.1-0.9c0.3-0.4,0.5-0.9,0.5-1.5c0-0.4-0.1-0.8-0.3-1.1c-0.2-0.3-0.4-0.6-0.7-0.8c-0.3-0.2-0.7-0.4-1.1-0.5
				c-0.4-0.1-0.8-0.2-1.3-0.2c-0.6,0-1.2,0.1-1.8,0.3c-0.3,0.1-0.6,0.2-0.8,0.3c-0.3,0.1-0.5,0.3-0.7,0.5c-0.1,0.1-0.1,0.2-0.1,0.3
				c0,0,0,0,0,0l0.5,0.7c0.1,0.2,0.2,0.2,0.4,0c0.3-0.2,0.7-0.4,1.1-0.5c0.4-0.1,0.8-0.2,1.3-0.2c0.2,0,0.5,0,0.7,0.1
				c0.2,0,0.4,0.1,0.6,0.2c0.2,0.1,0.3,0.3,0.4,0.4c0.1,0.2,0.2,0.4,0.2,0.6c0,0.4-0.2,0.9-0.5,1.1c-0.4,0.3-0.9,0.4-1.5,0.4h-0.4
				c-0.3,0-0.4,0.2-0.4,0.5v0.4c0,0.1,0,0.2,0.1,0.3c0.1,0.1,0.2,0.1,0.3,0.1h0.5c0.3,0,0.6,0,1,0.1c0.2,0.1,0.5,0.2,0.7,0.4
				c0.2,0.1,0.3,0.3,0.4,0.5c0.1,0.2,0.1,0.4,0.1,0.6c0,0.5-0.2,1-0.5,1.4c-0.5,0.4-1.1,0.6-1.8,0.5c-0.4,0-0.8-0.1-1.2-0.2
				c-0.4-0.1-0.8-0.3-1.2-0.6c-0.2-0.1-0.3-0.1-0.4,0l-0.5,0.8c-0.1,0.1-0.1,0.2,0,0.3c0.5,0.4,1,0.7,1.6,0.8
				c0.6,0.1,1.2,0.2,1.8,0.2c0.5,0,1-0.1,1.5-0.2c0.4-0.1,0.8-0.4,1.2-0.7c0.3-0.3,0.6-0.6,0.7-1c0.2-0.4,0.3-0.8,0.3-1.3
				c0-0.3,0-0.6-0.1-0.9C282.6,202.1,282.5,201.9,282.3,201.7L282.3,201.7z M261.9,197.2c-0.3-0.4-0.8-0.7-1.3-0.9
				c-0.6-0.2-1.2-0.3-1.8-0.3c-0.5,0-1,0.1-1.4,0.2c-0.4,0.1-0.8,0.3-1.2,0.6c-0.4,0.3-0.6,0.7-0.8,1.1c-0.2,0.5-0.3,1-0.3,1.5
				c0,0.9,0.4,1.8,1.2,2.4c0.4,0.3,0.8,0.5,1.2,0.6c0.5,0.1,0.9,0.2,1.4,0.2c0.4,0,0.9,0,1.3-0.1c0.4-0.1,0.8-0.2,1.2-0.3
				c-0.1,0.4-0.2,0.8-0.3,1.2c-0.2,0.4-0.4,0.7-0.7,1c-0.3,0.3-0.6,0.5-1,0.6c-0.4,0.2-0.9,0.2-1.3,0.2c-0.1,0-0.2,0-0.4,0
				c-0.1,0-0.3,0-0.4-0.1s-0.2-0.1-0.4-0.1c-0.1,0-0.2,0-0.2-0.1c-0.1,0-0.2,0-0.2,0c0,0-0.1,0.1-0.1,0.2l-0.3,0.8
				c0,0.1,0,0.1,0,0.2c0,0,0.1,0.1,0.2,0.1c0.3,0.1,0.6,0.2,0.9,0.2c0.3,0,0.6,0.1,0.9,0.1c0.8,0,1.6-0.1,2.3-0.5
				c0.6-0.3,1.1-0.7,1.5-1.2c0.4-0.5,0.7-1.2,0.9-1.8c0.2-0.7,0.3-1.5,0.3-2.3c0-0.7-0.1-1.3-0.3-2
				C262.6,198.1,262.3,197.6,261.9,197.2z M261.5,200.4c0,0.1,0,0.2,0,0.3c-0.5,0.1-0.9,0.2-1.4,0.3c-0.5,0.1-0.9,0.1-1.4,0.1
				c-0.3,0-0.6,0-0.9-0.1c-0.2-0.1-0.5-0.2-0.7-0.4c-0.2-0.2-0.3-0.4-0.4-0.6c-0.1-0.2-0.1-0.5-0.1-0.8c0-0.6,0.2-1.1,0.7-1.5
				c0.2-0.2,0.5-0.3,0.7-0.4c0.3-0.1,0.6-0.1,0.8-0.1c0.3,0,0.7,0.1,1,0.2c0.3,0.1,0.6,0.4,0.8,0.6c0.3,0.3,0.5,0.6,0.6,0.9
				c0.1,0.4,0.2,0.8,0.2,1.2L261.5,200.4z M282.8,178.6h-5.1c0.2-0.7,0.6-1.3,1.1-1.8c0.5-0.5,1.1-0.9,1.7-1.3
				c0.4-0.2,0.7-0.4,1-0.7c0.3-0.2,0.6-0.5,0.8-0.7c0.2-0.2,0.4-0.5,0.5-0.8c0.1-0.3,0.2-0.7,0.2-1c0-0.4-0.1-0.8-0.3-1.2
				c-0.2-0.3-0.4-0.6-0.7-0.8c-0.3-0.2-0.7-0.4-1.1-0.5c-1-0.3-2-0.2-3,0.1c-0.5,0.2-1.1,0.5-1.5,0.8c-0.1,0.1-0.2,0.2-0.1,0.3
				c0,0,0,0,0,0l0.5,0.7c0,0.1,0.1,0.1,0.2,0.1c0.1,0,0.1,0,0.2-0.1c0.7-0.5,1.5-0.8,2.3-0.8c0.5,0,1,0.1,1.5,0.4
				c0.3,0.2,0.5,0.6,0.5,1c0,0.2,0,0.4-0.1,0.5c-0.1,0.2-0.2,0.3-0.3,0.5c-0.2,0.2-0.3,0.3-0.5,0.5c-0.3,0.2-0.5,0.4-0.8,0.5
				c-0.3,0.2-0.7,0.4-1.1,0.7c-0.5,0.3-0.9,0.7-1.3,1.1c-0.4,0.4-0.7,0.9-1,1.4c-0.2,0.4-0.3,0.7-0.3,1.1c0,0.3,0.1,0.6,0.3,0.9
				c0.3,0.2,0.6,0.3,0.9,0.3h5.5c0.1,0,0.2,0,0.2-0.1c0-0.1,0-0.1,0-0.2v-0.8c0-0.1,0-0.1,0-0.2C283,178.7,283,178.6,282.8,178.6
				L282.8,178.6z M256.6,153.6c0.3,0.1,0.6,0.1,0.9,0.2c0.3,0,0.6,0,1,0c0.5,0,1.1-0.1,1.6-0.2c0.5-0.1,0.9-0.4,1.2-0.7
				c0.3-0.3,0.6-0.7,0.8-1.1c0.2-0.5,0.3-1,0.3-1.5c0-0.4-0.1-0.9-0.3-1.3c-0.2-0.4-0.4-0.7-0.7-1c-0.3-0.3-0.7-0.5-1.1-0.6
				c-0.4-0.1-0.9-0.2-1.3-0.2c-0.4,0-0.8,0-1.2,0.1c-0.4,0.1-0.8,0.2-1.2,0.3l0.3-2.8h4.6c0.1,0,0.2,0,0.2-0.1c0-0.1,0.1-0.1,0-0.2
				v-0.8c0-0.1,0-0.1,0-0.2c0,0-0.1-0.1-0.2-0.1h-5c-0.2,0-0.5,0.1-0.6,0.2c-0.2,0.2-0.3,0.5-0.3,0.7l-0.4,3.9c0,0.2,0,0.3,0.1,0.5
				c0.1,0.1,0.2,0.2,0.3,0.2l0.2,0.1c0.1,0,0.2,0.1,0.3,0.1c0.1,0,0.2,0,0.4-0.1c0.2-0.1,0.4-0.2,0.6-0.2c0.2-0.1,0.3-0.1,0.5-0.2
				c0.2-0.1,0.4-0.1,0.6-0.1c0.2,0,0.5,0,0.7,0c0.3,0,0.5,0,0.8,0.1c0.2,0.1,0.5,0.2,0.7,0.3c0.2,0.1,0.4,0.3,0.5,0.6
				c0.1,0.3,0.2,0.5,0.2,0.8c0,0.6-0.2,1.1-0.7,1.5c-0.5,0.4-1.2,0.6-1.8,0.6c-0.5,0-0.9-0.1-1.4-0.2c-0.4-0.1-0.8-0.3-1.2-0.6
				c-0.2-0.1-0.3-0.1-0.4,0l-0.5,0.8c-0.1,0.1-0.1,0.2,0,0.3c0.2,0.2,0.5,0.4,0.8,0.5C256,153.4,256.3,153.5,256.6,153.6
				L256.6,153.6z M253.5,178.7h-5.1c0.2-0.7,0.6-1.3,1.1-1.8c0.5-0.5,1.1-0.9,1.7-1.3c0.4-0.2,0.7-0.4,1-0.7
				c0.3-0.2,0.6-0.5,0.8-0.7c0.2-0.2,0.4-0.5,0.5-0.8c0.1-0.3,0.2-0.7,0.2-1c0-0.4-0.1-0.8-0.3-1.2c-0.2-0.3-0.4-0.6-0.7-0.8
				c-0.3-0.2-0.7-0.4-1.1-0.5c-1-0.3-2-0.2-3,0.1c-0.5,0.2-1.1,0.5-1.5,0.8c-0.1,0.1-0.2,0.2-0.1,0.3c0,0,0,0,0,0l0.5,0.7
				c0,0.1,0.1,0.1,0.2,0.1c0.1,0,0.1,0,0.2-0.1c0.7-0.5,1.5-0.8,2.3-0.8c0.5,0,1,0.1,1.5,0.4c0.3,0.2,0.5,0.6,0.5,1
				c0,0.2,0,0.4-0.1,0.5c-0.1,0.2-0.2,0.3-0.3,0.5c-0.2,0.2-0.3,0.3-0.5,0.5c-0.3,0.2-0.5,0.4-0.8,0.5c-0.3,0.2-0.7,0.4-1.1,0.7
				c-0.5,0.3-0.9,0.7-1.3,1.1c-0.4,0.4-0.7,0.9-1,1.4c-0.2,0.4-0.3,0.7-0.3,1.1c0,0.3,0.1,0.6,0.3,0.9c0.3,0.2,0.6,0.3,0.9,0.3h5.5
				c0.1,0,0.2,0,0.2-0.1c0-0.1,0-0.1,0-0.2V179c0-0.1,0-0.1,0-0.2C253.7,178.7,253.6,178.7,253.5,178.7z M257.6,126.4
				c0.3-0.3,0.5-0.6,0.7-1c0.1-0.3,0.2-0.7,0.2-1c0-0.6-0.2-1.1-0.5-1.6c-0.3-0.5-0.8-0.9-1.4-1v0c0.3-0.1,0.5-0.2,0.7-0.4
				c0.2-0.2,0.3-0.4,0.5-0.6c0.1-0.2,0.2-0.4,0.3-0.6c0.1-0.2,0.1-0.4,0.1-0.6c0-0.7-0.3-1.5-0.9-1.9c-0.3-0.3-0.7-0.5-1.1-0.6
				c-0.5-0.1-0.9-0.2-1.4-0.2c-0.5,0-0.9,0.1-1.3,0.2c-0.4,0.1-0.8,0.3-1.1,0.6c-0.3,0.2-0.5,0.6-0.7,0.9c-0.2,0.4-0.3,0.8-0.3,1.2
				c0,0.2,0,0.4,0.1,0.5c0.1,0.2,0.1,0.4,0.3,0.6c0.1,0.2,0.3,0.4,0.5,0.5c0.2,0.2,0.4,0.3,0.7,0.4v0c-0.3,0.1-0.5,0.2-0.7,0.4
				c-0.2,0.2-0.4,0.4-0.6,0.6c-0.2,0.2-0.3,0.5-0.4,0.8c-0.1,0.3-0.1,0.6-0.1,0.9c0,0.4,0.1,0.8,0.2,1.2c0.2,0.4,0.4,0.7,0.7,1
				c0.3,0.3,0.7,0.5,1.2,0.6c0.5,0.2,1.1,0.2,1.7,0.2c0.6,0,1.2-0.1,1.7-0.3C256.9,127,257.3,126.8,257.6,126.4L257.6,126.4z
				 M252.9,119.2c0.1-0.2,0.2-0.4,0.3-0.5c0.2-0.2,0.4-0.3,0.6-0.4c0.3-0.1,0.6-0.1,0.8-0.1c0.5,0,1,0.1,1.4,0.5
				c0.3,0.3,0.5,0.7,0.5,1.1c0,0.2-0.1,0.4-0.2,0.6c-0.1,0.2-0.3,0.3-0.4,0.5c-0.2,0.1-0.4,0.2-0.6,0.3c-0.2,0.1-0.5,0.1-0.7,0.1
				c-0.2,0-0.5,0-0.7-0.1c-0.2-0.1-0.4-0.2-0.6-0.3c-0.2-0.1-0.3-0.3-0.4-0.5c-0.1-0.2-0.2-0.4-0.2-0.6
				C252.8,119.6,252.9,119.4,252.9,119.2L252.9,119.2z M254.7,126.2c-0.4,0-0.7,0-1.1-0.2c-0.3-0.1-0.5-0.2-0.7-0.4
				c-0.2-0.2-0.3-0.4-0.4-0.6c-0.1-0.2-0.1-0.4-0.1-0.7c0-0.3,0.1-0.5,0.2-0.8c0.1-0.2,0.3-0.4,0.5-0.6c0.2-0.2,0.5-0.3,0.7-0.4
				c0.3-0.1,0.6-0.1,0.8-0.1c0.3,0,0.6,0,0.9,0.1c0.3,0.1,0.5,0.2,0.7,0.3c0.2,0.2,0.4,0.3,0.5,0.6c0.1,0.2,0.2,0.5,0.2,0.8
				c0,0.2,0,0.4-0.1,0.6c-0.1,0.2-0.2,0.4-0.4,0.6c-0.2,0.2-0.4,0.3-0.7,0.4C255.5,126.1,255.1,126.2,254.7,126.2L254.7,126.2z
				 M321.2,204.9h-1.8v-8.5c0-0.2-0.1-0.4-0.3-0.5c-0.2-0.1-0.4-0.1-0.6,0l-2.3,0.7c-0.1,0-0.2,0.1-0.2,0.1c0,0.1,0,0.1,0,0.2v0.7
				c0,0.1,0,0.1,0,0.2c0,0,0.1,0,0.2,0l1.7-0.3v7.3h-1.8c-0.1,0-0.2,0-0.2,0.1c0,0.1,0,0.1,0,0.2v0.8c0,0.1,0,0.1,0,0.2
				c0,0,0.1,0.1,0.2,0.1h5.1c0.1,0,0.2,0,0.2-0.1c0-0.1,0-0.1,0-0.2v-0.8c0-0.1,0-0.1,0-0.2C321.3,204.9,321.3,204.9,321.2,204.9
				L321.2,204.9z"/>
		</g>
		<g id="_x31__2_3_4_5_6_7_8_9_10_11_12_13_14_15_16_17_18_19_20_21_22_23_24___x28_ÍÓÔË__x29__31">
			<path class="st5" d="M159.4,153.7h5.1c0.1,0,0.2,0,0.2-0.1c0-0.1,0-0.1,0-0.2v-0.8c0-0.1,0-0.1,0-0.2c0,0-0.1-0.1-0.2-0.1h-1.8
				v-8.5c0-0.2-0.1-0.4-0.3-0.5c-0.2-0.1-0.4-0.1-0.6,0l-2.3,0.7c-0.1,0-0.2,0.1-0.2,0.1c0,0.1,0,0.1,0,0.2v0.7c0,0.1,0,0.1,0,0.2
				c0,0,0.1,0,0.2,0l1.7-0.3v7.3h-1.8c-0.1,0-0.2,0-0.2,0.1c0,0.1,0,0.1,0,0.2v0.8c0,0.1,0,0.1,0,0.2
				C159.2,153.7,159.3,153.7,159.4,153.7z M159.1,180h5.1c0.1,0,0.2,0,0.2-0.1c0-0.1,0-0.1,0-0.2v-0.8c0-0.1,0-0.1,0-0.2
				c0,0-0.1-0.1-0.2-0.1h-1.8v-8.5c0-0.2-0.1-0.4-0.3-0.5c-0.2-0.1-0.4-0.1-0.6,0l-2.3,0.7c-0.1,0-0.2,0.1-0.2,0.1
				c0,0.1,0,0.1,0,0.2v0.7c0,0.1,0,0.1,0,0.2c0,0,0.1,0,0.2,0l1.7-0.3v7.3h-1.8c-0.1,0-0.2,0-0.2,0.1c0,0.1,0,0.1,0,0.2v0.8
				c0,0.1,0,0.1,0,0.2C158.9,180,159,180,159.1,180L159.1,180z M174.6,201.7c-0.2-0.4-0.5-0.7-0.8-1c-0.3-0.3-0.7-0.5-1.2-0.6
				c-0.5-0.1-0.9-0.2-1.4-0.2c-0.2,0-0.4,0-0.7,0s-0.5,0-0.7,0.1c-0.2,0-0.5,0.1-0.7,0.1c-0.2,0-0.4,0.1-0.6,0.2
				c0.1-0.4,0.2-0.8,0.3-1.2c0.2-0.4,0.4-0.7,0.6-1c0.3-0.3,0.6-0.5,1-0.6c0.4-0.2,0.9-0.2,1.3-0.2c0.2,0,0.5,0,0.7,0.1
				c0.2,0,0.4,0.1,0.6,0.1c0.1,0,0.2,0,0.2,0c0.1,0,0.1-0.1,0.1-0.2l0.3-0.8c0-0.1,0-0.2,0-0.2c0,0-0.1-0.1-0.2-0.1
				c-0.3-0.1-0.6-0.2-0.9-0.2c-0.3,0-0.6-0.1-0.9-0.1c-0.8,0-1.6,0.1-2.3,0.5c-0.6,0.3-1.1,0.7-1.5,1.2c-0.4,0.5-0.7,1.2-0.8,1.8
				c-0.2,0.7-0.3,1.5-0.3,2.3c0,0.7,0.1,1.3,0.3,2c0.2,0.5,0.4,1.1,0.8,1.5c0.3,0.4,0.8,0.7,1.3,0.9c0.6,0.2,1.2,0.3,1.8,0.3
				c0.5,0,1-0.1,1.4-0.2c0.4-0.1,0.9-0.3,1.2-0.6c0.4-0.3,0.6-0.7,0.8-1.1c0.2-0.5,0.3-1,0.3-1.5
				C174.9,202.6,174.8,202.2,174.6,201.7L174.6,201.7z M172.8,204.7c-0.5,0.4-1.1,0.6-1.7,0.5c-0.4,0-0.7-0.1-1.1-0.2
				c-0.3-0.1-0.6-0.4-0.8-0.6c-0.2-0.3-0.4-0.6-0.5-0.9c-0.1-0.4-0.2-0.8-0.2-1.2v-0.2c0-0.1,0-0.2,0-0.3c0.5-0.1,0.9-0.2,1.4-0.3
				c0.5-0.1,0.9-0.1,1.4-0.1c0.3,0,0.6,0,0.9,0.1c0.2,0.1,0.5,0.2,0.7,0.4c0.2,0.2,0.3,0.4,0.4,0.6c0.1,0.2,0.1,0.5,0.1,0.8
				C173.5,203.8,173.2,204.3,172.8,204.7L172.8,204.7z M167.5,144.5c-0.1,0.1-0.2,0.2-0.1,0.3c0,0,0,0,0,0l0.5,0.7
				c0,0.1,0.1,0.1,0.2,0.1c0.1,0,0.1,0,0.2-0.1c0.7-0.5,1.5-0.8,2.3-0.8c0.5,0,1,0.1,1.5,0.4c0.3,0.2,0.5,0.6,0.5,1
				c0,0.2,0,0.4-0.1,0.5c-0.1,0.2-0.2,0.3-0.3,0.5c-0.2,0.2-0.3,0.3-0.5,0.5c-0.3,0.2-0.5,0.4-0.8,0.5c-0.3,0.2-0.7,0.4-1.1,0.7
				c-0.5,0.3-0.9,0.7-1.3,1.1c-0.4,0.4-0.7,0.9-1,1.4c-0.2,0.4-0.3,0.7-0.3,1.1c0,0.3,0.1,0.6,0.3,0.9c0.3,0.2,0.6,0.3,0.9,0.3h5.5
				c0.1,0,0.2,0,0.2-0.1c0-0.1,0-0.1,0-0.2v-0.8c0-0.1,0-0.1,0-0.2c0,0-0.1-0.1-0.2-0.1h-5.1c0.2-0.7,0.6-1.3,1.1-1.8
				c0.5-0.5,1.1-0.9,1.7-1.3c0.4-0.2,0.7-0.4,1-0.7c0.3-0.2,0.6-0.5,0.8-0.7c0.2-0.2,0.4-0.5,0.5-0.8c0.1-0.3,0.2-0.7,0.2-1
				c0-0.4-0.1-0.8-0.3-1.2c-0.2-0.3-0.4-0.6-0.7-0.8c-0.3-0.2-0.7-0.4-1.1-0.5c-1-0.3-2-0.2-3,0.1
				C168.4,143.8,167.9,144.1,167.5,144.5L167.5,144.5z M167.7,175.4c0.4,0.3,0.8,0.5,1.2,0.6c0.5,0.1,0.9,0.2,1.4,0.2
				c0.4,0,0.9,0,1.3-0.1c0.4-0.1,0.8-0.2,1.2-0.3c-0.1,0.4-0.2,0.8-0.3,1.2c-0.2,0.4-0.4,0.7-0.7,1c-0.3,0.3-0.6,0.5-1,0.6
				c-0.4,0.2-0.9,0.2-1.3,0.2c-0.1,0-0.2,0-0.4,0c-0.1,0-0.3,0-0.4-0.1c-0.1,0-0.2-0.1-0.4-0.1c-0.1,0-0.2,0-0.2-0.1
				c-0.1,0-0.2,0-0.2,0c0,0-0.1,0.1-0.1,0.2l-0.3,0.8c0,0.1,0,0.1,0,0.2c0,0,0.1,0.1,0.2,0.1c0.3,0.1,0.6,0.2,0.9,0.2
				c0.3,0,0.6,0.1,0.9,0.1c0.8,0,1.6-0.1,2.3-0.5c0.6-0.3,1.1-0.7,1.5-1.2c0.4-0.5,0.7-1.2,0.9-1.8c0.2-0.7,0.3-1.5,0.3-2.3
				c0-0.7-0.1-1.3-0.3-2c-0.2-0.5-0.4-1.1-0.8-1.5c-0.3-0.4-0.8-0.7-1.3-0.9c-0.6-0.2-1.2-0.3-1.8-0.3c-0.5,0-1,0.1-1.4,0.2
				c-0.4,0.1-0.8,0.3-1.2,0.6c-0.4,0.3-0.6,0.7-0.8,1.1c-0.2,0.5-0.3,1-0.3,1.5C166.5,174,166.9,174.9,167.7,175.4L167.7,175.4z
				 M168.2,172.1c0.1-0.2,0.3-0.5,0.5-0.6c0.2-0.2,0.5-0.3,0.7-0.4c0.3-0.1,0.6-0.1,0.8-0.1c0.3,0,0.7,0.1,1,0.2
				c0.3,0.1,0.6,0.4,0.8,0.6c0.3,0.3,0.5,0.6,0.6,0.9c0.1,0.4,0.2,0.8,0.2,1.2v0.2c0,0.1,0,0.2,0,0.3c-0.5,0.1-0.9,0.2-1.4,0.3
				c-0.5,0.1-0.9,0.1-1.4,0.1c-0.3,0-0.6,0-0.9-0.1c-0.2-0.1-0.5-0.2-0.7-0.4c-0.2-0.2-0.3-0.4-0.4-0.6c-0.1-0.2-0.1-0.5-0.1-0.8
				C168,172.6,168.1,172.3,168.2,172.1L168.2,172.1z M169.3,126.3c0.3-0.3,0.6-0.7,0.8-1.1c0.2-0.5,0.3-1,0.3-1.5
				c0-0.4-0.1-0.9-0.3-1.3c-0.2-0.4-0.4-0.7-0.7-1c-0.3-0.3-0.7-0.5-1.1-0.6c-0.4-0.1-0.9-0.2-1.3-0.2c-0.4,0-0.8,0-1.2,0.1
				c-0.4,0.1-0.8,0.2-1.2,0.3l0.3-2.8h4.6c0.1,0,0.2,0,0.2-0.1c0-0.1,0.1-0.1,0-0.2v-0.8c0-0.1,0-0.1,0-0.2c0,0-0.1-0.1-0.2-0.1h-5
				c-0.2,0-0.5,0.1-0.6,0.2c-0.2,0.2-0.3,0.5-0.3,0.7l-0.4,3.9c0,0.2,0,0.3,0.1,0.5c0.1,0.1,0.2,0.2,0.3,0.2l0.2,0.1
				c0.1,0,0.2,0.1,0.3,0.1c0.1,0,0.2,0,0.4-0.1c0.2-0.1,0.4-0.2,0.6-0.2c0.2-0.1,0.3-0.1,0.5-0.2c0.2-0.1,0.4-0.1,0.6-0.1
				c0.2,0,0.5,0,0.7,0c0.3,0,0.5,0,0.8,0.1c0.2,0.1,0.5,0.2,0.7,0.3c0.2,0.1,0.4,0.3,0.5,0.6c0.1,0.3,0.2,0.5,0.2,0.8
				c0,0.6-0.2,1.1-0.7,1.5c-0.5,0.4-1.2,0.6-1.8,0.6c-0.5,0-0.9-0.1-1.4-0.2c-0.4-0.1-0.8-0.3-1.2-0.6c-0.2-0.1-0.3-0.1-0.4,0
				l-0.5,0.8c-0.1,0.1-0.1,0.2,0,0.3c0.2,0.2,0.5,0.4,0.8,0.5c0.3,0.1,0.6,0.2,0.9,0.3c0.3,0.1,0.6,0.1,0.9,0.2c0.3,0,0.6,0,1,0
				c0.5,0,1.1-0.1,1.6-0.2C168.5,126.9,169,126.7,169.3,126.3L169.3,126.3z M165,205h-5.1c0.2-0.7,0.6-1.3,1.1-1.8
				c0.5-0.5,1.1-0.9,1.7-1.3c0.4-0.2,0.7-0.4,1-0.7c0.3-0.2,0.6-0.5,0.8-0.7c0.2-0.2,0.4-0.5,0.5-0.8c0.1-0.3,0.2-0.7,0.2-1
				c0-0.4-0.1-0.8-0.3-1.2c-0.2-0.3-0.4-0.6-0.7-0.8c-0.3-0.2-0.7-0.4-1.1-0.5c-1-0.3-2-0.2-3,0.1c-0.5,0.2-1.1,0.5-1.5,0.8
				c-0.1,0.1-0.2,0.2-0.1,0.3c0,0,0,0,0,0l0.5,0.7c0,0.1,0.1,0.1,0.2,0.1c0.1,0,0.1,0,0.2-0.1c0.7-0.5,1.5-0.8,2.3-0.8
				c0.5,0,1,0.1,1.5,0.4c0.3,0.2,0.5,0.6,0.5,1c0,0.2,0,0.4-0.1,0.5c-0.1,0.2-0.2,0.3-0.3,0.5c-0.2,0.2-0.3,0.3-0.5,0.5
				c-0.3,0.2-0.5,0.4-0.8,0.5c-0.3,0.2-0.7,0.4-1.1,0.7c-0.5,0.3-0.9,0.7-1.3,1.1c-0.4,0.4-0.7,0.9-1,1.4c-0.2,0.4-0.3,0.7-0.3,1.1
				c0,0.3,0.1,0.6,0.3,0.9c0.3,0.2,0.6,0.3,0.9,0.3h5.5c0.1,0,0.2,0,0.2-0.1c0-0.1,0-0.1,0-0.2v-0.8c0-0.1,0-0.1,0-0.2
				C165.2,205.1,165.1,205,165,205L165,205z"/>
		</g>
		<line class="st3" x1="359.7" y1="27.4" x2="359.7" y2="36.1"/>
		<line class="st3" x1="352" y1="27.4" x2="352" y2="36.1"/>
		<line class="st3" x1="344.3" y1="27.4" x2="344.3" y2="36.1"/>
		<line class="st3" x1="336.6" y1="27.4" x2="336.6" y2="36.1"/>
		<line class="st3" x1="328.9" y1="27.4" x2="328.9" y2="36.1"/>
		<line class="st3" x1="321.3" y1="27.4" x2="321.3" y2="36.1"/>
		<line class="st3" x1="313.6" y1="27.4" x2="313.6" y2="36.1"/>
		<line class="st3" x1="305.9" y1="27.4" x2="305.9" y2="36.1"/>
		<line class="st3" x1="298.2" y1="27.4" x2="298.2" y2="36.1"/>
		<line class="st3" x1="290.5" y1="27.4" x2="290.5" y2="36.1"/>
		<line class="st3" x1="282.8" y1="27.4" x2="282.8" y2="36.1"/>
		<line class="st3" x1="275.1" y1="27.4" x2="275.1" y2="36.1"/>
		<line class="st3" x1="149.6" y1="36.1" x2="149.6" y2="27.4"/>
		<line class="st3" x1="157.2" y1="36.1" x2="157.2" y2="27.4"/>
		<line class="st3" x1="164.9" y1="36.1" x2="164.9" y2="27.4"/>
		<line class="st3" x1="172.6" y1="36.1" x2="172.6" y2="27.4"/>
		<line class="st3" x1="180.3" y1="36.1" x2="180.3" y2="27.4"/>
		<line class="st3" x1="188" y1="36.1" x2="188" y2="27.4"/>
		<line class="st3" x1="195.7" y1="36.1" x2="195.7" y2="27.4"/>
		<line class="st3" x1="203.4" y1="36.1" x2="203.4" y2="27.4"/>
		<line class="st3" x1="211" y1="36.1" x2="211" y2="27.4"/>
		<line class="st3" x1="218.7" y1="36.1" x2="218.7" y2="27.4"/>
		<line class="st3" x1="226.4" y1="36.1" x2="226.4" y2="27.4"/>
		<line class="st3" x1="234.1" y1="36.1" x2="234.1" y2="27.4"/>
		<path class="st3" d="M363.1,28.4h-93.9c0-8-6.5-14.4-14.4-14.4c-8,0-14.4,6.5-14.4,14.4h-94.3"/>
		<path class="st6" d="M252.1,8.4l1.6,10.8c0.4,0.1,0.8,0.1,1.2,0.1c0.8-0.1,0.8-0.5,0.8-0.5l-1.6-10.9L252.1,8.4z"/>
		<path class="st6" d="M255.9,7.6c0.1,0.7-1.2,1.5-2.8,1.6s-3-0.3-3-1l0-0.6l5.8-0.6L255.9,7.6z"/>
		<ellipse transform="matrix(0.9947 -0.1027 0.1027 0.9947 0.5869 26.0021)" class="st6" cx="252.9" cy="7.3" rx="2.9" ry="1.3"/>
		<path class="st1" d="M384.6,128.8L384.6,128.8c0.1,0.1,0.2,0.2,0.3,0.2l4-4.8l2.8,2.3l2.1-2.5c1.7-2,1.4-5-0.6-6.6l-7.1-6
			c-2-1.7-5-1.4-6.6,0.6l-2.1,2.5l2.5,2.1l-4,4.7c-8.4-5.9-18.1-9.6-28.2-11V97.2h2.5c2.6,0,4.7-2.1,4.7-4.7v-4.8
			c0-2.6-2.1-4.7-4.7-4.7H328c-2.6,0-4.7,2.1-4.7,4.7v4.8c0,2.6,2.1,4.7,4.7,4.7h2.5v13.2c-35.2,4.7-59.9,37.1-55.1,72.2
			s37.1,59.9,72.2,55.1c35.2-4.7,59.9-37.1,55.1-72.2C400.9,151.7,394.5,138.7,384.6,128.8L384.6,128.8z"/>
		<rect x="337.3" y="129.3" class="st7" width="3.6" height="7.1"/>
		<rect x="316.7" y="134.8" transform="matrix(0.866 -0.5 0.5 0.866 -26.5016 177.7755)" class="st7" width="3.6" height="7.1"/>
		<rect x="301.6" y="149.9" transform="matrix(0.5 -0.866 0.866 0.5 18.8555 339.4848)" class="st7" width="3.6" height="7.1"/>
		<rect x="294.4" y="172.2" class="st7" width="7.1" height="3.6"/>
		<rect x="299.9" y="192.8" transform="matrix(0.866 -0.5 0.5 0.866 -56.6399 177.7769)" class="st7" width="7.1" height="3.6"/>
		<rect x="315" y="207.9" transform="matrix(0.5 -0.866 0.866 0.5 -22.3198 380.6485)" class="st7" width="7.1" height="3.6"/>
		<rect x="337.3" y="211.6" class="st7" width="3.6" height="7.1"/>
		<rect x="357.9" y="206.1" transform="matrix(0.866 -0.5 0.5 0.866 -56.64 207.9159)" class="st7" width="3.6" height="7.1"/>
		<rect x="372.9" y="191" transform="matrix(0.5 -0.866 0.866 0.5 18.8531 421.8234)" class="st7" width="3.6" height="7.1"/>
		<rect x="376.7" y="172.2" class="st7" width="7.1" height="3.6"/>
		<rect x="371.2" y="151.6" transform="matrix(0.866 -0.5 0.5 0.866 -26.5008 207.9225)" class="st7" width="7.1" height="3.6"/>
		<rect x="356.1" y="136.5" transform="matrix(0.5 -0.866 0.866 0.5 60.0255 380.6545)" class="st7" width="7.1" height="3.6"/>
		<path class="st8" d="M339.1,228c-29.7,0-53.7-24-53.7-53.7s24-53.7,53.7-53.7c29.7,0,53.7,24,53.7,53.7c0,0,0,0,0,0
			C392.8,203.9,368.7,228,339.1,228z M339.1,123.4c-28.1,0-50.9,22.8-50.9,50.9c0,28.1,22.8,50.9,50.9,50.9
			c28.1,0,50.9-22.8,50.9-50.9c0,0,0,0,0,0C389.9,146.2,367.2,123.4,339.1,123.4z"/>
		<path class="st7" d="M374.9,164.7c-0.2-0.7-1.7-1-3.5-0.6l-25.5,5c-2.9-3.7-8.2-4.4-12-1.6c-1.5,1.1-2.5,2.7-3,4.5l-8.7,1.7
			c-1.7,0.3-2.8,2-2.5,3.7c0,0.1,0,0.1,0,0.2l0.9,3.4c0.4,1.7,2.2,2.7,3.8,2.2c0.1,0,0.1,0,0.2-0.1l8.4-2.9
			c3.4,3.3,8.8,3.3,12.1-0.1c1.3-1.3,2.1-3,2.4-4.9l24.6-8.4C373.9,166.4,375.1,165.4,374.9,164.7z M340.1,178.1
			c-2.1,0.6-4.2-0.7-4.8-2.8c-0.6-2.1,0.7-4.2,2.8-4.8c2.1-0.6,4.2,0.7,4.8,2.8C343.4,175.4,342.2,177.5,340.1,178.1
			C340.1,178.1,340.1,178.1,340.1,178.1z"/>
		<line class="st8" x1="347.6" y1="110.3" x2="347.6" y2="97.1"/>
		<line class="st8" x1="330.6" y1="97.1" x2="330.6" y2="110.3"/>
		<path class="st8" d="M328,83h22.1c2.6,0,4.7,2.1,4.7,4.7v4.8c0,2.6-2.1,4.7-4.7,4.7H328c-2.6,0-4.7-2.1-4.7-4.7v-4.8
			C323.3,85.1,325.4,83,328,83z"/>
		<path class="st8" d="M384.5,128.7c-25.1-25.1-65.8-25.1-90.9,0c-25.1,25.1-25.1,65.8,0,90.9c25.1,25.1,65.8,25.1,90.9,0
			c12.1-12.1,18.8-28.4,18.8-45.4C403.4,157.1,396.6,140.7,384.5,128.7z"/>
		<line class="st8" x1="379.9" y1="116.6" x2="375.9" y2="121.4"/>
		<path class="st8" d="M384.7,128.8c0.1,0.1,0.1,0.1,0.2,0.2l4.1-4.8"/>
		<path class="st8" d="M391.6,126.6l2.1-2.5c1.7-2,1.4-5-0.6-6.6l-7.1-6c-2-1.7-5-1.4-6.6,0.6l-2.1,2.5L391.6,126.6z"/>
		<path class="st9" d="M350.1,83c2.6,0,4.7,2.1,4.7,4.7v4.8c0,2.6-2.1,4.7-4.7,4.7h-2.5v13.2c10.2,1.3,19.8,5.1,28.2,11l4-4.7
			l-2.5-2.1l2.1-2.5c1.7-2,4.6-2.2,6.6-0.6l7.1,6c2,1.7,2.2,4.6,0.6,6.6l-2.1,2.5l-2.8-2.3l-4,4.8c-0.1-0.1-0.1-0.1-0.2-0.2
			l-0.1-0.1c25.1,25.1,25,65.8-0.1,90.9s-65.8,25-90.9-0.1c-25.1-25.1-25-65.8,0.1-90.9c10-9.9,22.9-16.3,36.9-18.2V97.2H328
			c-2.6,0-4.7-2.1-4.7-4.7v-4.8c0-2.6,2.1-4.7,4.7-4.7H350.1 M350.1,80H328c-4.3,0-7.7,3.5-7.7,7.7v4.8c0,4.1,3.2,7.4,7.2,7.7v7.7
			c-36.6,6.4-61.1,41.2-54.7,77.8s41.2,61.1,77.8,54.7s61.1-41.2,54.7-77.8c-2.2-12.6-7.9-24.3-16.5-33.7l0.4-0.4l0.5,0.4
			c0.5,0.5,1.2,0.7,1.9,0.7c0.1,0,0.2,0,0.3,0c0.8-0.1,1.5-0.5,2-1.1l2.1-2.5c2.7-3.3,2.3-8.1-1-10.9l-7.1-6
			c-3.3-2.7-8.1-2.3-10.9,1l-2.1,2.5c-1.1,1.3-0.9,3.2,0.4,4.2c0,0,0,0,0,0l0.2,0.2l-0.3,0.4c-7.5-4.8-15.9-8-24.7-9.6v-7.7
			c4.1-0.3,7.2-3.6,7.2-7.7v-4.8C357.8,83.4,354.4,80,350.1,80L350.1,80z"/>
	</g>
</g>
</svg>
